<?xml version="1.0" encoding="UTF-8" standalone="no"?>
<svg
   xmlns:dc="http://purl.org/dc/elements/1.1/"
   xmlns:cc="http://creativecommons.org/ns#"
   xmlns:rdf="http://www.w3.org/1999/02/22-rdf-syntax-ns#"
   xmlns:svg="http://www.w3.org/2000/svg"
   xmlns="http://www.w3.org/2000/svg"
   xmlns:sodipodi="http://sodipodi.sourceforge.net/DTD/sodipodi-0.dtd"
   xmlns:inkscape="http://www.inkscape.org/namespaces/inkscape"
   width="18.169743mm"
   height="24.796326mm"
   viewBox="0 0 18.169743 24.796326"
   version="1.1"
   id="svg1264"
   sodipodi:docname="finger5.svg"
   inkscape:version="1.0.2 (e86c8708, 2021-01-15)">
  <defs
     id="defs1258" />
  <sodipodi:namedview
     id="base"
     pagecolor="#ffffff"
     bordercolor="#666666"
     borderopacity="1.0"
     inkscape:pageopacity="0.0"
     inkscape:pageshadow="2"
     inkscape:zoom="0.7"
     inkscape:cx="101.70941"
     inkscape:cy="-250.88511"
     inkscape:document-units="mm"
     inkscape:current-layer="layer1"
     inkscape:document-rotation="0"
     showgrid="false"
     fit-margin-left="1"
     lock-margins="true"
     inkscape:window-width="1252"
     inkscape:window-height="943"
     inkscape:window-x="767"
     inkscape:window-y="51"
     inkscape:window-maximized="0"
     fit-margin-top="1"
     fit-margin-right="1"
     fit-margin-bottom="1" />
  <metadata
     id="metadata1261">
    <rdf:RDF>
      <cc:Work
         rdf:about="">
        <dc:format>image/svg+xml</dc:format>
        <dc:type
           rdf:resource="http://purl.org/dc/dcmitype/StillImage" />
        <dc:title></dc:title>
      </cc:Work>
    </rdf:RDF>
  </metadata>
  <g
     inkscape:label="Layer 1"
     inkscape:groupmode="layer"
     id="layer1"
     transform="translate(-158.14951,-34.460329)">
    <path
       d="m 174.6361,44.105439 c -0.45573,-0.506038 -1.23591,-0.52117 -1.7113,-0.04599 l -3.29308,3.192074 1.23336,-8.64688 c 0.24506,-0.673081 -0.0525,-1.399419 -0.66444,-1.622076 -0.61196,-0.222854 -1.30647,0.14228 -1.55152,0.815558 L 167.47,44.893282 v -7.860799 c 0,-0.651268 -0.52785,-1.17912 -1.17912,-1.17912 v 0 c -0.65127,0 -1.17912,0.527852 -1.17912,1.17912 v 7.860801 h -0.001 l -0.78491,-7.673321 c -0.0625,-0.713564 -0.63888,-1.246133 -1.2876,-1.189339 -0.6489,0.05679 -1.12409,0.681335 -1.06159,1.394899 l 0.77703,7.467761 -0.86685,-4.14618 c -0.1244,-0.705506 -0.745,-1.185605 -1.38644,-1.072607 -0.64125,0.113196 -1.06023,0.776648 -0.93603,1.482156 l 0.83109,4.712549 v 4.526642 c 0,1.302337 0.66265,2.35824 1.96519,2.35824 v 5.10952 h 7.07472 v -5.139195 c 1.34086,-0.181977 2.3999,-1.277184 2.50426,-2.655772 0.0849,-1.123701 0.50644,-2.195128 1.30331,-2.992017 l 1.30235,-1.302338 c 0.4516,-0.451603 0.51822,-1.194251 0.091,-1.668848"
       style="fill:#f7d3c2;fill-opacity:1;fill-rule:nonzero;stroke:none;stroke-width:0.019652"
       id="path949" />
    <path
       d="m 162.75352,57.470569 h 6.28864 v -4.745958 c 0,-0.196717 0.14541,-0.362973 0.33997,-0.389503 1.16616,-0.158395 2.07703,-1.124094 2.16527,-2.295944 0.0979,-1.290546 0.58798,-2.410906 1.41749,-3.240418 l 1.30235,-1.302534 c 0.31659,-0.316791 0.35117,-0.822632 0.0768,-1.127829 -0.1468,-0.162522 -0.34705,-0.255279 -0.5648,-0.260782 -0.21715,-0.0088 -0.42251,0.07605 -0.57639,0.229928 l -3.29741,3.196399 c -0.12106,0.116536 -0.30284,0.143853 -0.45219,0.0678 -0.14975,-0.07625 -0.23465,-0.239361 -0.21067,-0.405617 l 1.23316,-8.64688 c 0.004,-0.02712 0.0108,-0.05365 0.0198,-0.0792 0.0849,-0.233466 0.0833,-0.480884 -0.005,-0.696467 -0.0833,-0.202612 -0.23366,-0.352164 -0.42448,-0.421536 -0.19082,-0.06996 -0.40228,-0.05148 -0.59605,0.05031 -0.19691,0.10337 -0.35197,0.279844 -0.44001,0.498767 l -1.17243,7.056641 c -0.0334,0.201826 -0.21893,0.34784 -0.41996,0.327206 -0.2038,-0.0169 -0.36082,-0.187087 -0.36082,-0.391664 v -7.860806 c 0,-0.433523 -0.35275,-0.78608 -0.78607,-0.78608 -0.43333,0 -0.78609,0.352557 -0.78609,0.78608 v 7.860801 c 0,0.216957 -0.17588,0.39304 -0.39304,0.39304 -0.20143,0 -0.37162,-0.152696 -0.39225,-0.353148 l -0.78491,-7.673319 c -0.0439,-0.502109 -0.42762,-0.876676 -0.86252,-0.837569 -0.43136,0.03772 -0.74776,0.472631 -0.70432,0.969041 l 0.77645,7.461275 c 0.022,0.208114 -0.12323,0.396577 -0.32996,0.428807 -0.20654,0.03262 -0.40267,-0.103174 -0.44532,-0.307751 l -0.86666,-4.146173 c -0.0459,-0.256655 -0.17077,-0.470076 -0.35551,-0.612749 -0.17313,-0.133831 -0.37908,-0.188856 -0.57796,-0.15309 -0.20006,0.03518 -0.37417,0.156627 -0.4913,0.341748 -0.12439,0.19711 -0.1694,0.440402 -0.12637,0.68507 l 0.83109,4.712549 c 0.004,0.02259 0.006,0.04539 0.006,0.06839 v 4.526445 c 0,0.949977 0.41309,1.965199 1.57216,1.965199 0.21715,0 0.39304,0.176082 0.39304,0.393041 z m 6.68168,0.78608 h -7.07472 c -0.21716,0 -0.39304,-0.176082 -0.39304,-0.39304 v -4.746548 c -1.19071,-0.187086 -1.9652,-1.233556 -1.9652,-2.721212 v -4.492252 l -0.8248,-4.678551 c -0.0772,-0.437847 0.007,-0.878641 0.23563,-1.241613 0.23641,-0.374764 0.59841,-0.62179 1.01915,-0.695878 0.42055,-0.07409 0.84504,0.0342 1.19544,0.305393 0.0711,0.05463 0.13678,0.114767 0.1977,0.179618 l -0.23976,-2.306358 c -0.0817,-0.934846 0.55498,-1.751387 1.41809,-1.827047 0.85643,-0.07841 1.6321,0.618252 1.71346,1.546417 l 0.002,0.01474 v -0.167829 c 0,-0.866849 0.70511,-1.57216 1.57217,-1.57216 0.86705,0 1.57216,0.705311 1.57216,1.57216 v 3.098334 l 0.39833,-2.397347 c 0.004,-0.02378 0.01,-0.04717 0.0185,-0.06976 0.15211,-0.417606 0.44492,-0.757781 0.82441,-0.957249 0.39244,-0.206543 0.82911,-0.239362 1.2306,-0.09315 0.4015,0.145818 0.71514,0.452192 0.88317,0.86233 0.15741,0.384197 0.16782,0.81654 0.0309,1.222747 l -1.06592,7.471494 2.46829,-2.392631 c 0.2991,-0.299299 0.72202,-0.468896 1.14847,-0.455533 0.43568,0.0114 0.83638,0.196323 1.12841,0.520581 0,1.97e-4 0,1.97e-4 0,1.97e-4 0.55891,0.621003 0.51292,1.591615 -0.10514,2.209474 l -1.30234,1.302536 c -0.69469,0.694894 -1.1062,1.643692 -1.18953,2.743811 -0.1075,1.423395 -1.13765,2.614895 -2.50288,2.950945 v 4.814347 c 0,0.216958 -0.17589,0.39304 -0.39304,0.39304"
       style="fill:#323131;fill-opacity:1;fill-rule:nonzero;stroke:none;stroke-width:0.019652"
       id="path951" />
    <path
       d="m 167.27348,50.002808 c -0.21715,0 -0.39305,-0.176082 -0.39305,-0.393039 0,-1.517135 1.23435,-2.751281 2.75129,-2.751281 0.21715,0 0.39304,0.176083 0.39304,0.39304 0,0.216958 -0.17589,0.39304 -0.39304,0.39304 -1.08361,0 -1.96521,0.881589 -1.96521,1.965201 0,0.216957 -0.17588,0.393039 -0.39303,0.393039"
       style="fill:#323131;fill-opacity:1;fill-rule:nonzero;stroke:none;stroke-width:0.019652"
       id="path953" />
  </g>
</svg>
