<?xml version="1.0" encoding="UTF-8" standalone="no"?>
<svg
   xmlns:dc="http://purl.org/dc/elements/1.1/"
   xmlns:cc="http://creativecommons.org/ns#"
   xmlns:rdf="http://www.w3.org/1999/02/22-rdf-syntax-ns#"
   xmlns:svg="http://www.w3.org/2000/svg"
   xmlns="http://www.w3.org/2000/svg"
   xmlns:sodipodi="http://sodipodi.sourceforge.net/DTD/sodipodi-0.dtd"
   xmlns:inkscape="http://www.inkscape.org/namespaces/inkscape"
   width="14.57728mm"
   height="24.521193mm"
   viewBox="0 0 14.57728 24.521193"
   version="1.1"
   id="svg1264"
   inkscape:version="1.0.2 (e86c8708, 2021-01-15)"
   sodipodi:docname="finger1.svg">
  <defs
     id="defs1258" />
  <sodipodi:namedview
     id="base"
     pagecolor="#ffffff"
     bordercolor="#666666"
     borderopacity="1.0"
     inkscape:pageopacity="0.0"
     inkscape:pageshadow="2"
     inkscape:zoom="0.7"
     inkscape:cx="296.69102"
     inkscape:cy="153.0021"
     inkscape:document-units="mm"
     inkscape:current-layer="layer1"
     inkscape:document-rotation="0"
     showgrid="false"
     fit-margin-left="1"
     lock-margins="true"
     fit-margin-top="1"
     fit-margin-right="1"
     fit-margin-bottom="1"
     inkscape:window-width="1252"
     inkscape:window-height="943"
     inkscape:window-x="767"
     inkscape:window-y="51"
     inkscape:window-maximized="0" />
  <metadata
     id="metadata1261">
    <rdf:RDF>
      <cc:Work
         rdf:about="">
        <dc:format>image/svg+xml</dc:format>
        <dc:type
           rdf:resource="http://purl.org/dc/dcmitype/StillImage" />
        <dc:title></dc:title>
      </cc:Work>
    </rdf:RDF>
  </metadata>
  <g
     inkscape:label="Layer 1"
     inkscape:groupmode="layer"
     id="layer1"
     transform="translate(-27.333833,-34.735456)">
    <path
       d="m 40.518074,48.823688 c 0,1.302339 -1.055903,2.358241 -2.35824,2.358241 h 0.393039 v 6.68168 h -7.860801 v -6.68168 h 0.393041 c -1.302398,0 -2.35824,-1.055902 -2.35824,-2.358241 v -5.895599 h 9.03992 v 1.572159"
       style="fill:#f7d3c2;fill-opacity:1;fill-rule:nonzero;stroke:none;stroke-width:0.019652"
       id="path923" />
    <path
       d="m 38.945913,58.256649 h -8.64688 v -6.796055 c -1.135356,-0.339194 -1.9652,-1.392934 -1.9652,-2.636906 v -6.28864 h 9.826001 v 1.9652 h -0.786081 v -1.17912 h -8.25384 v 5.50256 c 0,1.083612 0.881648,1.965201 1.9652,1.965201 v 6.68168 h 7.074721 v -6.68168 c 1.08361,0 1.965199,-0.881589 1.965199,-1.965201 h 0.78608 c 0,1.243972 -0.829904,2.297712 -1.9652,2.636906 v 6.796055"
       style="fill:#323131;fill-opacity:1;fill-rule:nonzero;stroke:none;stroke-width:0.019652"
       id="path925" />
    <path
       d="m 33.443353,40.962888 v 3.47074 c 0,0.638298 0.478133,1.210564 1.115644,1.243972 0.680156,0.03576 1.242596,-0.505056 1.242596,-1.177352 v -3.53736 c 0,-0.651267 -0.527853,-1.17912 -1.17912,-1.17912 v 0 c -0.651267,0 -1.17912,0.527853 -1.17912,1.17912"
       style="fill:#f7d3c2;fill-opacity:1;fill-rule:nonzero;stroke:none;stroke-width:0.019652"
       id="path927" />
    <path
       d="m 34.622473,40.176808 c -0.433327,0 -0.78608,0.352558 -0.78608,0.78608 v 3.470544 c 0,0.448065 0.333495,0.830297 0.743435,0.851717 0.209687,0.0098 0.42527,-0.06446 0.583468,-0.214599 0.158199,-0.149945 0.245256,-0.352558 0.245256,-0.570302 v -3.53736 c 0,-0.433522 -0.352752,-0.78608 -0.786079,-0.78608 z m 0.0016,5.8956 c -0.02849,0 -0.05679,-7.8e-4 -0.08568,-0.0023 -0.834385,-0.04363 -1.488049,-0.762694 -1.488049,-1.636618 v -3.470543 c 0,-0.86685 0.705094,-1.57216 1.572159,-1.57216 0.867047,0 1.572161,0.70531 1.572161,1.57216 v 3.53736 c 0,0.429396 -0.17844,0.845036 -0.490121,1.140601 -0.295173,0.280042 -0.676029,0.431559 -1.080468,0.431559"
       style="fill:#323131;fill-opacity:1;fill-rule:nonzero;stroke:none;stroke-width:0.019652"
       id="path929" />
    <path
       d="m 32.264233,45.679369 c 0.651208,0 1.17912,-0.527853 1.17912,-1.179121 V 41.47384 c 0,-0.716315 -0.527912,-1.297032 -1.17912,-1.297032 v 0 c -0.651208,0 -1.17912,0.580717 -1.17912,1.297032 v 3.026408 c 0,0.651268 0.527912,1.179121 1.17912,1.179121 v 0"
       style="fill:#f7d3c2;fill-opacity:1;fill-rule:nonzero;stroke:none;stroke-width:0.019652"
       id="path931" />
    <path
       d="m 32.264233,40.569848 c -0.433346,0 -0.78608,0.405421 -0.78608,0.903992 v 3.026408 c 0,0.433524 0.352734,0.786081 0.78608,0.786081 0.433346,0 0.78608,-0.352557 0.78608,-0.786081 V 41.47384 c 0,-0.498571 -0.352734,-0.903992 -0.78608,-0.903992 z m 0,5.50256 c -0.867065,0 -1.572161,-0.70531 -1.572161,-1.57216 V 41.47384 c 0,-0.932094 0.705096,-1.690072 1.572161,-1.690072 0.867066,0 1.57216,0.757978 1.57216,1.690072 v 3.026408 c 0,0.86685 -0.705094,1.57216 -1.57216,1.57216"
       style="fill:#323131;fill-opacity:1;fill-rule:nonzero;stroke:none;stroke-width:0.019652"
       id="path933" />
    <path
       d="m 29.905993,45.679369 c 0.651209,0 1.17912,-0.508791 1.17912,-1.136476 v -2.329941 c 0,-0.690374 -0.527911,-1.250064 -1.17912,-1.250064 v 0 c -0.651209,0 -1.17912,0.55969 -1.17912,1.250064 v 2.329941 c 0,0.627685 0.527911,1.136476 1.17912,1.136476 v 0"
       style="fill:#f7d3c2;fill-opacity:1;fill-rule:nonzero;stroke:none;stroke-width:0.019652"
       id="path935" />
    <path
       d="m 29.905993,41.355928 c -0.433346,0 -0.78608,0.384393 -0.78608,0.857024 v 2.329941 c 0,0.409941 0.352734,0.743436 0.78608,0.743436 0.433346,0 0.786079,-0.333495 0.786079,-0.743436 v -2.329941 c 0,-0.472631 -0.352733,-0.857024 -0.786079,-0.857024 z m 0,4.71648 c -0.867066,0 -1.57216,-0.686051 -1.57216,-1.529515 v -2.329941 c 0,-0.905957 0.705094,-1.643104 1.57216,-1.643104 0.867066,0 1.57216,0.737147 1.57216,1.643104 v 2.329941 c 0,0.843464 -0.705094,1.529515 -1.57216,1.529515"
       style="fill:#323131;fill-opacity:1;fill-rule:nonzero;stroke:none;stroke-width:0.019652"
       id="path937" />
    <path
       d="m 38.159834,44.500248 v -7.07472 c 0,-0.716316 -0.527854,-1.297032 -1.179121,-1.297032 v 0 c -0.651267,0 -1.17912,0.580716 -1.17912,1.297032 v 7.07472 h 2.358241"
       style="fill:#f7d3c2;fill-opacity:1;fill-rule:nonzero;stroke:none;stroke-width:0.019652"
       id="path939" />
    <path
       d="m 36.194633,44.107208 h 1.57216 v -6.68168 c 0,-0.498375 -0.352753,-0.903992 -0.78608,-0.903992 -0.433327,0 -0.78608,0.405617 -0.78608,0.903992 z m 2.35824,0.786081 h -3.144321 v -7.467761 c 0,-0.931897 0.705115,-1.690072 1.572161,-1.690072 0.867046,0 1.57216,0.758175 1.57216,1.690072 v 7.467761"
       style="fill:#323131;fill-opacity:1;fill-rule:nonzero;stroke:none;stroke-width:0.019652"
       id="path941" />
    <path
       d="m 35.015514,50.395849 c -0.217155,0 -0.393041,-0.176082 -0.393041,-0.393041 0,-1.95046 1.586702,-3.53736 3.537361,-3.53736 0.217154,0 0.393039,0.176083 0.393039,0.39304 0,0.216958 -0.175885,0.39304 -0.393039,0.39304 -1.516939,0 -2.751282,1.234146 -2.751282,2.75128 0,0.216959 -0.175885,0.393041 -0.393038,0.393041"
       style="fill:#323131;fill-opacity:1;fill-rule:nonzero;stroke:none;stroke-width:0.019652"
       id="path943" />
    <path
       d="m 40.518074,48.823688 v -2.75128 c 0,-0.868225 -0.703935,-1.57216 -1.572161,-1.57216 h -3.537361 c -0.651266,0 -1.179119,0.527853 -1.179119,1.179121 v 0 c 0,0.651266 0.527853,1.179119 1.179119,1.179119 h 2.751282"
       style="fill:#f7d3c2;fill-opacity:1;fill-rule:nonzero;stroke:none;stroke-width:0.019652"
       id="path945" />
    <path
       d="m 40.518074,49.216728 c -0.217155,0 -0.393041,-0.176082 -0.393041,-0.39304 v -2.75128 c 0,-0.650284 -0.528835,-1.179119 -1.17912,-1.179119 h -3.537361 c -0.433326,0 -0.786079,0.352557 -0.786079,0.78608 0,0.433523 0.352753,0.786079 0.786079,0.786079 h 2.751282 c 0.217154,0 0.393039,0.176083 0.393039,0.39304 0,0.216958 -0.175885,0.39304 -0.393039,0.39304 h -2.751282 c -0.867045,0 -1.572159,-0.70531 -1.572159,-1.572159 0,-0.86685 0.705114,-1.572161 1.572159,-1.572161 h 3.537361 c 1.083611,0 1.9652,0.881589 1.9652,1.9652 v 2.75128 c 0,0.216958 -0.175885,0.39304 -0.393039,0.39304"
       style="fill:#323131;fill-opacity:1;fill-rule:nonzero;stroke:none;stroke-width:0.019652"
       id="path947" />
  </g>
</svg>
