<?xml version="1.0" encoding="UTF-8" standalone="no"?>
<svg
   xmlns:dc="http://purl.org/dc/elements/1.1/"
   xmlns:cc="http://creativecommons.org/ns#"
   xmlns:rdf="http://www.w3.org/1999/02/22-rdf-syntax-ns#"
   xmlns:svg="http://www.w3.org/2000/svg"
   xmlns="http://www.w3.org/2000/svg"
   xmlns:sodipodi="http://sodipodi.sourceforge.net/DTD/sodipodi-0.dtd"
   xmlns:inkscape="http://www.inkscape.org/namespaces/inkscape"
   width="13.791217mm"
   height="24.817659mm"
   viewBox="0 0 13.791217 24.817659"
   version="1.1"
   id="svg1264"
   sodipodi:docname="finger3.svg"
   inkscape:version="1.0.2 (e86c8708, 2021-01-15)">
  <defs
     id="defs1258" />
  <sodipodi:namedview
     id="base"
     pagecolor="#ffffff"
     bordercolor="#666666"
     borderopacity="1.0"
     inkscape:pageopacity="0.0"
     inkscape:pageshadow="2"
     inkscape:zoom="0.7"
     inkscape:cx="-1.4752052"
     inkscape:cy="-108.96901"
     inkscape:document-units="mm"
     inkscape:current-layer="layer1"
     inkscape:document-rotation="0"
     showgrid="false"
     fit-margin-left="1"
     lock-margins="true"
     inkscape:window-width="1252"
     inkscape:window-height="943"
     inkscape:window-x="767"
     inkscape:window-y="51"
     inkscape:window-maximized="0"
     fit-margin-top="1"
     fit-margin-right="1"
     fit-margin-bottom="1" />
  <metadata
     id="metadata1261">
    <rdf:RDF>
      <cc:Work
         rdf:about="">
        <dc:format>image/svg+xml</dc:format>
        <dc:type
           rdf:resource="http://purl.org/dc/dcmitype/StillImage" />
        <dc:title></dc:title>
      </cc:Work>
    </rdf:RDF>
  </metadata>
  <g
     inkscape:label="Layer 1"
     inkscape:groupmode="layer"
     id="layer1"
     transform="translate(-93.757883,-34.460215)">
    <path
       d="m 96.722795,57.863609 h 7.860805 v -5.8956 h -7.860805 z"
       style="fill:#f7d3c2;fill-opacity:1;fill-rule:nonzero;stroke:none;stroke-width:0.019652"
       id="path883" />
    <path
       d="m 104.5836,58.277873 h -7.860805 c -0.228749,0 -0.414067,-0.185515 -0.414067,-0.414264 v -5.8956 c 0,-0.22875 0.185318,-0.414264 0.414067,-0.414264 0.22875,0 0.414068,0.185514 0.414068,0.414264 v 5.481336 h 7.032667 v -5.481336 c 0,-0.22875 0.18532,-0.414264 0.41407,-0.414264 0.22875,0 0.41406,0.185514 0.41406,0.414264 v 5.8956 c 0,0.228749 -0.18531,0.414264 -0.41406,0.414264"
       style="fill:#323131;fill-opacity:1;fill-rule:nonzero;stroke:none;stroke-width:0.019652"
       id="path885" />
    <path
       d="m 103.79752,51.968009 c 1.30233,0 2.35824,-1.055903 2.35824,-2.35824 v -1.965201 l -1.9652,-2.358239 v -0.769573 l 1.0445,-6.127493 c 0.11103,-0.628668 -0.26039,-1.275415 -0.88257,-1.418875 -0.66345,-0.153286 -1.31138,0.281612 -1.42811,0.943689 l -1.09206,6.193131 v -7.0081 c 0,-0.638296 -0.47814,-1.210759 -1.11565,-1.244168 -0.68015,-0.03557 -1.242594,0.505253 -1.242594,1.177548 v 7.07472 l -1.080467,-6.127494 c -0.110837,-0.628667 -0.681139,-1.109355 -1.314916,-1.031533 -0.675832,0.08313 -1.135688,0.713564 -1.018956,1.375443 l 1.019742,5.783584 v 0 c -1.065335,0 -1.928843,0.863509 -1.928843,1.928844 v 3.573717 c 0,1.302337 1.055902,2.35824 2.358239,2.35824"
       style="fill:#f7d3c2;fill-opacity:1;fill-rule:nonzero;stroke:none;stroke-width:0.019652"
       id="path887" />
    <path
       d="m 103.79752,52.361048 c -0.21716,0 -0.39304,-0.176081 -0.39304,-0.393039 0,-0.216958 0.17588,-0.39304 0.39304,-0.39304 1.08361,0 1.9652,-0.881589 1.9652,-1.9652 v -1.82292 l -1.87422,-2.248975 c -0.0588,-0.07055 -0.091,-0.159575 -0.091,-0.251545 v -0.769573 c 0,-0.0222 0.002,-0.04442 0.006,-0.06603 l 1.0449,-6.127493 c 0.0778,-0.443546 -0.18433,-0.877659 -0.58386,-0.969827 -0.21381,-0.04953 -0.43057,-0.01061 -0.61255,0.109855 -0.18159,0.120271 -0.30245,0.304606 -0.34057,0.51901 l -1.09187,6.193328 c -0.035,0.200843 -0.21853,0.339979 -0.42114,0.323078 -0.20301,-0.01769 -0.35885,-0.187676 -0.35885,-0.391468 v -7.007903 c 0,-0.448066 -0.33349,-0.830297 -0.74343,-0.851718 -0.21107,-0.01238 -0.42567,0.06446 -0.58347,0.2146 -0.1582,0.149945 -0.245258,0.35236 -0.245258,0.570301 v 7.07472 c 0,0.203792 -0.155841,0.373782 -0.358846,0.391468 -0.199665,0.01631 -0.386162,-0.122235 -0.421142,-0.323078 l -1.080463,-6.127496 c -0.07782,-0.44158 -0.474007,-0.756994 -0.880017,-0.709633 -0.217351,0.02653 -0.407975,0.13776 -0.537874,0.312663 -0.129311,0.175296 -0.180014,0.389895 -0.142281,0.604299 l 1.019741,5.783387 c 0.02044,0.114769 -0.01101,0.232091 -0.08588,0.320918 -0.07448,0.08902 -0.18473,0.140511 -0.301069,0.140511 -0.846608,0 -1.535608,0.688999 -1.535608,1.535607 v 3.573914 c 0,1.083611 0.881589,1.9652 1.9652,1.9652 0.217156,0 0.393041,0.176082 0.393041,0.39304 0,0.216958 -0.175885,0.393039 -0.393041,0.393039 -1.516938,0 -2.75128,-1.234145 -2.75128,-2.751279 v -3.573914 c 0,-1.122521 0.801016,-2.061691 1.861634,-2.275897 l -0.946635,-5.367945 c -0.07487,-0.42291 0.02928,-0.863312 0.284562,-1.208204 0.259013,-0.3502 0.640065,-0.572463 1.073392,-0.62572 0.832262,-0.100029 1.598297,0.493068 1.75001,1.353433 l 0.300479,1.703435 v -2.582469 c 0,-0.429396 0.178441,-0.845036 0.490121,-1.140603 0.316005,-0.299495 0.728104,-0.453371 1.166154,-0.429199 0.83442,0.04363 1.48805,0.762694 1.48805,1.636619 v 2.51526 l 0.31207,-1.76868 c 0.0745,-0.422715 0.32249,-0.801212 0.68055,-1.038215 0.36258,-0.240345 0.79787,-0.318363 1.22275,-0.220497 0.81418,0.187874 1.33319,1.009328 1.18187,1.870281 l -1.039,6.092514 v 0.594276 l 1.87421,2.248779 c 0.0588,0.07055 0.091,0.159574 0.091,0.251545 v 1.965201 c 0,1.517134 -1.23434,2.751279 -2.75128,2.751279"
       style="fill:#323131;fill-opacity:1;fill-rule:nonzero;stroke:none;stroke-width:0.019652"
       id="path889" />
    <path
       d="m 95.261473,45.39186 1.300569,2.789208 c 0.269822,0.578751 0.945065,0.895346 1.536983,0.65618 0.631419,-0.255083 0.912639,-0.982993 0.628471,-1.592205 L 97.398627,44.395307 C 97.1235,43.804961 96.421923,43.549681 95.831774,43.825005 v 0 c -0.590346,0.275128 -0.845626,0.976705 -0.570301,1.566855"
       style="fill:#f7d3c2;fill-opacity:1;fill-rule:nonzero;stroke:none;stroke-width:0.019652"
       id="path955" />
    <path
       d="m 96.328576,44.107601 c -0.110837,0 -0.223836,0.02358 -0.330743,0.0735 -0.392647,0.183353 -0.563226,0.65166 -0.38007,1.044504 v 1.96e-4 l 1.300373,2.789405 c 0.189249,0.406207 0.652446,0.610588 1.034088,0.457695 0.202613,-0.08195 0.35806,-0.238772 0.437847,-0.441384 0.07998,-0.202808 0.0733,-0.423304 -0.01867,-0.620413 l -1.328866,-2.849737 c -0.133238,-0.28574 -0.417602,-0.453765 -0.713955,-0.453765 z m 1.351468,5.204244 c -0.60646,0 -1.192876,-0.361401 -1.474293,-0.964521 l -1.300373,-2.789405 c -0.366509,-0.785491 -0.02535,-1.722891 0.759943,-2.089204 0.785295,-0.36651 1.72348,-0.02515 2.089597,0.760336 l 1.328869,2.849932 c 0.181192,0.388914 0.194948,0.84091 0.03793,1.240435 -0.159575,0.405224 -0.47047,0.718477 -0.875105,0.882375 -0.184925,0.07468 -0.376925,0.109855 -0.566567,0.110052"
       style="fill:#323131;fill-opacity:1;fill-rule:nonzero;stroke:none;stroke-width:0.019652"
       id="path957" />
    <path
       d="m 106.15576,49.216728 v -2.35824 c 0,-0.868226 -0.70394,-1.572159 -1.57216,-1.572159 h -4.32344 c -0.651271,0 -1.179125,0.527852 -1.179125,1.179119 v 0 c 0,0.651268 0.527854,1.17912 1.179125,1.17912 h 3.53736"
       style="fill:#f7d3c2;fill-opacity:1;fill-rule:nonzero;stroke:none;stroke-width:0.019652"
       id="path959" />
    <path
       d="m 106.15576,49.609769 c -0.21716,0 -0.39304,-0.176082 -0.39304,-0.393041 v -2.35824 c 0,-0.650284 -0.52884,-1.179119 -1.17912,-1.179119 h -4.32344 c -0.433331,0 -0.786084,0.352556 -0.786084,0.786079 0,0.433524 0.352753,0.78608 0.786084,0.78608 h 3.53736 c 0.21715,0 0.39304,0.176083 0.39304,0.39304 0,0.216958 -0.17589,0.39304 -0.39304,0.39304 h -3.53736 c -0.867051,0 -1.572164,-0.705309 -1.572164,-1.57216 0,-0.86685 0.705113,-1.572159 1.572164,-1.572159 h 4.32344 c 1.08361,0 1.9652,0.881588 1.9652,1.965199 v 2.35824 c 0,0.216959 -0.17589,0.393041 -0.39304,0.393041"
       style="fill:#323131;fill-opacity:1;fill-rule:nonzero;stroke:none;stroke-width:0.019652"
       id="path961" />
    <path
       d="m 100.6532,51.181929 c -0.21716,0 -0.39304,-0.176083 -0.39304,-0.39304 0,-1.950461 1.5867,-3.537361 3.53736,-3.537361 0.21715,0 0.39304,0.176083 0.39304,0.39304 0,0.216958 -0.17589,0.39304 -0.39304,0.39304 -1.51694,0 -2.75128,1.234146 -2.75128,2.751281 0,0.216957 -0.17589,0.39304 -0.39304,0.39304"
       style="fill:#323131;fill-opacity:1;fill-rule:nonzero;stroke:none;stroke-width:0.019652"
       id="path963" />
  </g>
</svg>
