<?xml version="1.0" encoding="UTF-8" standalone="no"?>
<svg
   xmlns:dc="http://purl.org/dc/elements/1.1/"
   xmlns:cc="http://creativecommons.org/ns#"
   xmlns:rdf="http://www.w3.org/1999/02/22-rdf-syntax-ns#"
   xmlns:svg="http://www.w3.org/2000/svg"
   xmlns="http://www.w3.org/2000/svg"
   xmlns:sodipodi="http://sodipodi.sourceforge.net/DTD/sodipodi-0.dtd"
   xmlns:inkscape="http://www.inkscape.org/namespaces/inkscape"
   width="14.57728mm"
   height="24.796322mm"
   viewBox="0 0 14.57728 24.796322"
   version="1.1"
   id="svg1264"
   sodipodi:docname="finger4.svg"
   inkscape:version="1.0.2 (e86c8708, 2021-01-15)">
  <defs
     id="defs1258" />
  <sodipodi:namedview
     id="base"
     pagecolor="#ffffff"
     bordercolor="#666666"
     borderopacity="1.0"
     inkscape:pageopacity="0.0"
     inkscape:pageshadow="2"
     inkscape:zoom="0.7"
     inkscape:cx="39.439833"
     inkscape:cy="-239.21277"
     inkscape:document-units="mm"
     inkscape:current-layer="layer1"
     inkscape:document-rotation="0"
     showgrid="false"
     fit-margin-left="1"
     lock-margins="true"
     inkscape:window-width="1252"
     inkscape:window-height="943"
     inkscape:window-x="767"
     inkscape:window-y="51"
     inkscape:window-maximized="0"
     fit-margin-top="1"
     fit-margin-right="1"
     fit-margin-bottom="1" />
  <metadata
     id="metadata1261">
    <rdf:RDF>
      <cc:Work
         rdf:about="">
        <dc:format>image/svg+xml</dc:format>
        <dc:type
           rdf:resource="http://purl.org/dc/dcmitype/StillImage" />
        <dc:title></dc:title>
      </cc:Work>
    </rdf:RDF>
  </metadata>
  <g
     inkscape:label="Layer 1"
     inkscape:groupmode="layer"
     id="layer1"
     transform="translate(-126.37992,-34.460328)">
    <path
       d="m 137.20591,44.107208 v -6.28864 c 0,-0.651267 -0.52785,-1.17912 -1.17911,-1.17912 v 0 c -0.65127,0 -1.17912,0.527853 -1.17912,1.17912 v 6.28864 -7.07472 c 0,-0.651268 -0.52785,-1.17912 -1.17912,-1.17912 v 0 c -0.65127,0 -1.17912,0.527852 -1.17912,1.17912 v 7.07472 -6.28864 c 0,-0.651267 -0.52786,-1.17912 -1.17912,-1.17912 v 0 c -0.65126,0 -1.17912,0.527853 -1.17912,1.17912 v 6.28864 -3.9304 c 0,-0.651267 -0.52785,-1.17912 -1.17912,-1.17912 v 0 c -0.65127,0 -1.17913,0.527853 -1.17913,1.17912 v 8.64688 c 0,1.302339 1.05591,2.358241 2.35825,2.358241 h -0.39304 v 6.68168 h 7.8608 v -6.68168 h -0.39305 c 1.30235,0 2.35825,-1.055902 2.35825,-2.358241"
       style="fill:#f7d3c2;fill-opacity:1;fill-rule:nonzero;stroke:none;stroke-width:0.019652"
       id="path891" />
    <path
       d="m 137.59896,58.256649 h -7.8608 c -0.21716,0 -0.39305,-0.176082 -0.39305,-0.39304 v -6.403015 c -1.13528,-0.339194 -1.96519,-1.392934 -1.96519,-2.636906 v -8.64688 c 0,-0.866849 0.70511,-1.57216 1.57216,-1.57216 0.28594,0 0.55458,0.07684 0.78608,0.210866 v -0.996946 c 0,-0.86685 0.70511,-1.57216 1.57216,-1.57216 0.32347,0 0.62414,0.09806 0.87431,0.266088 0.21539,-0.61216 0.79926,-1.052168 1.48393,-1.052168 0.68467,0 1.26854,0.440008 1.48392,1.052168 0.25017,-0.168025 0.55085,-0.266088 0.87432,-0.266088 0.86705,0 1.57216,0.70531 1.57216,1.57216 v 6.28864 c 0,0.216958 -0.17588,0.39304 -0.39305,0.39304 -0.21714,0 -0.39303,-0.176082 -0.39303,-0.39304 v -6.28864 c 0,-0.433523 -0.35276,-0.78608 -0.78608,-0.78608 -0.43333,0 -0.78608,0.352557 -0.78608,0.78608 v 6.28864 c 0,0.216958 -0.17589,0.39304 -0.39304,0.39304 -0.21716,0 -0.39304,-0.176082 -0.39304,-0.39304 v -7.07472 c 0,-0.433523 -0.35276,-0.78608 -0.78608,-0.78608 -0.43332,0 -0.78608,0.352557 -0.78608,0.78608 v 7.07472 c 0,0.216958 -0.17588,0.39304 -0.39304,0.39304 -0.21716,0 -0.39305,-0.176082 -0.39305,-0.39304 v -6.28864 c 0,-0.433523 -0.35274,-0.78608 -0.78607,-0.78608 -0.43333,0 -0.78608,0.352557 -0.78608,0.78608 v 6.28864 c 0,0.216958 -0.17589,0.39304 -0.39304,0.39304 -0.21716,0 -0.39304,-0.176082 -0.39304,-0.39304 v -3.9304 c 0,-0.433523 -0.35275,-0.786079 -0.78608,-0.786079 -0.43333,0 -0.78608,0.352556 -0.78608,0.786079 v 8.64688 c 0,1.083612 0.88159,1.965201 1.9652,1.965201 0.21715,0 0.39304,0.176082 0.39304,0.39304 0,0.216958 -0.17589,0.39304 -0.39304,0.39304 v 5.8956 h 7.07471 v -5.8956 c -0.21714,0 -0.39303,-0.176082 -0.39303,-0.39304 0,-0.216958 0.17589,-0.39304 0.39303,-0.39304 1.08362,0 1.96521,-0.881589 1.96521,-1.965201 0,-0.216957 0.17588,-0.393039 0.39304,-0.393039 0.21715,0 0.39304,0.176082 0.39304,0.393039 0,1.243972 -0.82991,2.297712 -1.9652,2.636906 v 6.403015 c 0,0.216958 -0.17589,0.39304 -0.39304,0.39304"
       style="fill:#323131;fill-opacity:1;fill-rule:nonzero;stroke:none;stroke-width:0.019652"
       id="path893" />
    <path
       d="m 139.56416,48.823688 v -2.75128 c 0,-0.868225 -0.70394,-1.57216 -1.57216,-1.57216 h -3.53736 c -0.65127,0 -1.17912,0.527853 -1.17912,1.179121 v 0 c 0,0.651266 0.52785,1.179119 1.17912,1.179119 h 2.75127"
       style="fill:#f7d3c2;fill-opacity:1;fill-rule:nonzero;stroke:none;stroke-width:0.019652"
       id="path895" />
    <path
       d="m 139.9572,48.823688 h -0.78608 v -2.75128 c 0,-0.650284 -0.52884,-1.179119 -1.17912,-1.179119 h -3.53736 c -0.43333,0 -0.78608,0.352557 -0.78608,0.78608 0,0.433523 0.35275,0.786079 0.78608,0.786079 h 2.75127 v 0.78608 h -2.75127 c -0.86704,0 -1.57216,-0.70531 -1.57216,-1.572159 0,-0.86685 0.70512,-1.572161 1.57216,-1.572161 h 3.53736 c 1.08361,0 1.9652,0.881589 1.9652,1.9652 v 2.75128"
       style="fill:#323131;fill-opacity:1;fill-rule:nonzero;stroke:none;stroke-width:0.019652"
       id="path897" />
    <path
       d="m 134.0616,50.395849 c -0.21716,0 -0.39304,-0.176082 -0.39304,-0.393041 0,-1.95046 1.5867,-3.53736 3.53735,-3.53736 0.21717,0 0.39305,0.176083 0.39305,0.39304 0,0.216958 -0.17588,0.39304 -0.39305,0.39304 -1.51693,0 -2.75127,1.234146 -2.75127,2.75128 0,0.216959 -0.17589,0.393041 -0.39304,0.393041"
       style="fill:#323131;fill-opacity:1;fill-rule:nonzero;stroke:none;stroke-width:0.019652"
       id="path899" />
  </g>
</svg>
