<?xml version="1.0" encoding="UTF-8" standalone="no"?>
<svg
   xmlns:dc="http://purl.org/dc/elements/1.1/"
   xmlns:cc="http://creativecommons.org/ns#"
   xmlns:rdf="http://www.w3.org/1999/02/22-rdf-syntax-ns#"
   xmlns:svg="http://www.w3.org/2000/svg"
   xmlns="http://www.w3.org/2000/svg"
   xmlns:sodipodi="http://sodipodi.sourceforge.net/DTD/sodipodi-0.dtd"
   xmlns:inkscape="http://www.inkscape.org/namespaces/inkscape"
   width="14.57728mm"
   height="24.403671mm"
   viewBox="0 0 14.57728 24.403671"
   version="1.1"
   id="svg1264"
   sodipodi:docname="finger2.svg"
   inkscape:version="1.0.2 (e86c8708, 2021-01-15)">
  <defs
     id="defs1258" />
  <sodipodi:namedview
     id="base"
     pagecolor="#ffffff"
     bordercolor="#666666"
     borderopacity="1.0"
     inkscape:pageopacity="0.0"
     inkscape:pageshadow="2"
     inkscape:zoom="0.7"
     inkscape:cx="68.599583"
     inkscape:cy="21.274315"
     inkscape:document-units="mm"
     inkscape:current-layer="layer1"
     inkscape:document-rotation="0"
     showgrid="false"
     fit-margin-left="1"
     lock-margins="true"
     inkscape:window-width="1252"
     inkscape:window-height="943"
     inkscape:window-x="767"
     inkscape:window-y="51"
     inkscape:window-maximized="0"
     fit-margin-top="1"
     fit-margin-right="1"
     fit-margin-bottom="1" />
  <metadata
     id="metadata1261">
    <rdf:RDF>
      <cc:Work
         rdf:about="">
        <dc:format>image/svg+xml</dc:format>
        <dc:type
           rdf:resource="http://purl.org/dc/dcmitype/StillImage" />
        <dc:title></dc:title>
      </cc:Work>
    </rdf:RDF>
  </metadata>
  <g
     inkscape:label="Layer 1"
     inkscape:groupmode="layer"
     id="layer1"
     transform="translate(-60.349194,-34.852977)">
    <path
       d="m 70.782154,45.286329 v -1.57216 h -9.03992 v 5.8956 c 0,1.302337 1.055902,2.35824 2.358241,2.35824 h -0.393041 v 5.8956 h 7.860801 v -5.8956 h -0.393041 c 1.302339,0 2.358241,-1.055903 2.358241,-2.35824 v -1.965201"
       style="fill:#f7d3c2;fill-opacity:1;fill-rule:nonzero;stroke:none;stroke-width:0.019652"
       id="path901" />
    <path
       d="m 71.568235,58.256649 h -7.860801 c -0.217154,0 -0.39304,-0.176082 -0.39304,-0.39304 v -5.616935 c -1.135296,-0.339193 -1.9652,-1.392934 -1.9652,-2.636905 v -5.8956 c 0,-0.217155 0.175886,-0.393041 0.39304,-0.393041 h 9.03992 c 0.217155,0 0.39304,0.175886 0.39304,0.393041 v 1.57216 c 0,0.216958 -0.175885,0.39304 -0.39304,0.39304 -0.217154,0 -0.393039,-0.176082 -0.393039,-0.39304 v -1.179121 h -8.253841 v 5.502561 c 0,1.083611 0.881589,1.9652 1.965201,1.9652 0.217154,0 0.393039,0.176082 0.393039,0.39304 0,0.216958 -0.175885,0.393039 -0.393039,0.393039 v 5.109521 h 7.074719 v -5.109521 c -0.217154,0 -0.39304,-0.176081 -0.39304,-0.393039 0,-0.216958 0.175886,-0.39304 0.39304,-0.39304 1.083612,0 1.9652,-0.881589 1.9652,-1.9652 v -1.965201 c 0,-0.216957 0.175886,-0.39304 0.393041,-0.39304 0.217154,0 0.393039,0.176083 0.393039,0.39304 v 1.965201 c 0,1.243971 -0.829903,2.297712 -1.965199,2.636905 v 5.616935 c 0,0.216958 -0.175886,0.39304 -0.39304,0.39304"
       style="fill:#323131;fill-opacity:1;fill-rule:nonzero;stroke:none;stroke-width:0.019652"
       id="path903" />
    <path
       d="m 71.789516,36.262916 c -0.641246,-0.112999 -1.262052,0.3671 -1.386448,1.072606 l -1.193074,6.76638 -1.193073,-6.76638 c -0.124397,-0.705506 -0.745203,-1.185605 -1.386448,-1.072606 v 0 c -0.641245,0.112999 -1.060422,0.776647 -0.936025,1.481957 l 1.481171,8.399462 c 0.112998,0.641441 0.72457,1.069659 1.365815,0.956463 0.270214,-0.04756 0.49857,-0.186891 0.66856,-0.376336 0.16999,0.189445 0.398347,0.328777 0.668562,0.376336 v 0 c 0.641244,0.113196 1.252815,-0.315022 1.365814,-0.956463 l 1.481171,-8.399462 c 0.124397,-0.70531 -0.29478,-1.368958 -0.936025,-1.481957"
       style="fill:#f7d3c2;fill-opacity:1;fill-rule:nonzero;stroke:none;stroke-width:0.019652"
       id="path905" />
    <path
       d="m 66.818346,36.639448 c -0.03989,0 -0.07979,0.0035 -0.119288,0.01061 -0.200057,0.03498 -0.37437,0.156431 -0.491299,0.341552 -0.124397,0.197109 -0.169401,0.440402 -0.126363,0.684872 l 1.481171,8.399659 c 0.03655,0.206739 0.151321,0.386948 0.323276,0.50761 0.172348,0.120271 0.381445,0.16606 0.587201,0.130097 0.2146,-0.03793 0.360025,-0.157806 0.444529,-0.251939 0.148961,-0.166059 0.435881,-0.166059 0.584843,0 0.0845,0.09413 0.229928,0.214011 0.444529,0.251939 0.205755,0.03597 0.41446,-0.0098 0.587201,-0.130097 0.171955,-0.120662 0.286723,-0.300871 0.322883,-0.507413 l 1.481564,-8.399856 c 0.04304,-0.24447 -0.002,-0.487763 -0.126362,-0.684872 -0.116929,-0.185121 -0.291243,-0.306571 -0.4913,-0.341552 v 0 c -0.198682,-0.03616 -0.404832,0.01926 -0.577966,0.15309 -0.184729,0.142673 -0.309715,0.356094 -0.353146,0.600565 l -1.192877,6.766379 c -0.03302,0.187678 -0.196126,0.324849 -0.386948,0.324849 -0.190821,0 -0.353932,-0.137171 -0.386948,-0.324849 L 67.63017,37.403713 c -0.04343,-0.24447 -0.168418,-0.457891 -0.353146,-0.600564 -0.138547,-0.107301 -0.298318,-0.163702 -0.458678,-0.163701 z m 1.514972,10.872667 c -0.319345,1.95e-4 -0.631025,-0.09747 -0.898096,-0.284562 -0.344303,-0.24113 -0.573838,-0.601548 -0.646747,-1.015026 l -1.480779,-8.399265 c -0.07723,-0.437846 0.0065,-0.878641 0.235627,-1.241417 0.236415,-0.374764 0.598404,-0.621985 1.018957,-0.696074 0.421143,-0.07428 0.845233,0.0344 1.195628,0.305589 0.339783,0.26255 0.568926,0.64832 0.645961,1.085773 l 0.806125,4.571056 0.806126,-4.571056 c 0.07703,-0.437453 0.306178,-0.823223 0.64596,-1.085773 0.350396,-0.271197 0.774486,-0.379873 1.195628,-0.305589 v 0 c 0.420554,0.07409 0.782543,0.32131 1.018956,0.696074 0.229143,0.362776 0.31286,0.803571 0.235628,1.241417 l -1.481171,8.399462 c -0.07252,0.413281 -0.302051,0.773699 -0.646354,1.014829 -0.34391,0.240933 -0.761515,0.333298 -1.174404,0.260389 -0.216958,-0.03812 -0.419963,-0.121253 -0.600369,-0.244078 -0.180405,0.123022 -0.38341,0.205954 -0.600368,0.244078 -0.09197,0.01631 -0.184533,0.02417 -0.276308,0.02417"
       style="fill:#323131;fill-opacity:1;fill-rule:nonzero;stroke:none;stroke-width:0.019652"
       id="path907" />
    <path
       d="m 61.742234,43.321128 v 2.29162 c 0,0.638297 0.478133,1.210759 1.115644,1.244168 0.680156,0.03557 1.242597,-0.505252 1.242597,-1.177547 v -2.358241 c 0,-0.651267 -0.527854,-1.17912 -1.179121,-1.17912 v 0 c -0.651267,0 -1.17912,0.527853 -1.17912,1.17912"
       style="fill:#f7d3c2;fill-opacity:1;fill-rule:nonzero;stroke:none;stroke-width:0.019652"
       id="path909" />
    <path
       d="m 62.921354,42.535048 c -0.433327,0 -0.78608,0.352556 -0.78608,0.78608 v 2.291423 c 0,0.448066 0.333494,0.830297 0.743435,0.851718 0.211063,0.01199 0.42527,-0.06466 0.583469,-0.2146 0.158198,-0.149944 0.245256,-0.352556 0.245256,-0.5703 v -2.358241 c 0,-0.433524 -0.352754,-0.78608 -0.78608,-0.78608 z m 0.0016,4.71648 c -0.02849,0 -0.0568,-7.8e-4 -0.08568,-0.0023 -0.834425,-0.04363 -1.48805,-0.762694 -1.48805,-1.636619 v -2.291423 c 0,-0.86685 0.705114,-1.57216 1.57216,-1.57216 0.867046,0 1.572161,0.70531 1.572161,1.57216 v 2.358241 c 0,0.429395 -0.178441,0.845035 -0.490122,1.140601 -0.295172,0.280041 -0.676028,0.431558 -1.080466,0.431558"
       style="fill:#323131;fill-opacity:1;fill-rule:nonzero;stroke:none;stroke-width:0.019652"
       id="path911" />
    <path
       d="m 64.100475,42.535048 v 3.0777 c 0,0.638297 0.478133,1.210759 1.115643,1.244168 0.680156,0.03557 1.242596,-0.505252 1.242596,-1.177547 v -3.144321 c 0,-0.651267 -0.527852,-1.17912 -1.17912,-1.17912 v 0 c -0.651268,0 -1.179119,0.527853 -1.179119,1.17912"
       style="fill:#f7d3c2;fill-opacity:1;fill-rule:nonzero;stroke:none;stroke-width:0.019652"
       id="path913" />
    <path
       d="m 65.279594,41.748968 c -0.433327,0 -0.78608,0.352557 -0.78608,0.78608 v 3.077503 c 0,0.448066 0.333495,0.830297 0.743436,0.851718 0.210079,0.01199 0.425269,-0.06466 0.583467,-0.2146 0.158199,-0.149944 0.245257,-0.352556 0.245257,-0.5703 v -3.144321 c 0,-0.433523 -0.352753,-0.78608 -0.78608,-0.78608 z m 0.0016,5.50256 c -0.02849,0 -0.05679,-7.8e-4 -0.08568,-0.0023 -0.834423,-0.04363 -1.488049,-0.762694 -1.488049,-1.636619 v -3.077503 c 0,-0.86685 0.705114,-1.57216 1.57216,-1.57216 0.867046,0 1.57216,0.70531 1.57216,1.57216 v 3.144321 c 0,0.429395 -0.17844,0.845035 -0.490121,1.140601 -0.295173,0.280041 -0.676029,0.431558 -1.080467,0.431558"
       style="fill:#323131;fill-opacity:1;fill-rule:nonzero;stroke:none;stroke-width:0.019652"
       id="path915" />
    <path
       d="m 73.533435,49.216728 v -2.35824 c 0,-0.868226 -0.703935,-1.572159 -1.57216,-1.572159 h -4.323441 c -0.651267,0 -1.17912,0.527852 -1.17912,1.179119 v 0 c 0,0.651268 0.527853,1.17912 1.17912,1.17912 h 3.53736"
       style="fill:#f7d3c2;fill-opacity:1;fill-rule:nonzero;stroke:none;stroke-width:0.019652"
       id="path917" />
    <path
       d="m 73.926474,49.216728 h -0.78608 v -2.35824 c 0,-0.650284 -0.528835,-1.179119 -1.179119,-1.179119 h -4.323441 c -0.433326,0 -0.78608,0.352556 -0.78608,0.786079 0,0.433524 0.352754,0.78608 0.78608,0.78608 h 3.53736 v 0.78608 h -3.53736 c -0.867046,0 -1.57216,-0.705309 -1.57216,-1.57216 0,-0.86685 0.705114,-1.572159 1.57216,-1.572159 h 4.323441 c 1.083611,0 1.965199,0.881588 1.965199,1.965199 v 2.35824"
       style="fill:#323131;fill-opacity:1;fill-rule:nonzero;stroke:none;stroke-width:0.019652"
       id="path919" />
    <path
       d="m 68.030874,51.181929 c -0.217154,0 -0.39304,-0.176083 -0.39304,-0.39304 0,-1.950461 1.586703,-3.537361 3.53736,-3.537361 0.217155,0 0.393041,0.176083 0.393041,0.39304 0,0.216958 -0.175886,0.39304 -0.393041,0.39304 -1.516938,0 -2.751279,1.234146 -2.751279,2.751281 0,0.216957 -0.175886,0.39304 -0.393041,0.39304"
       style="fill:#323131;fill-opacity:1;fill-rule:nonzero;stroke:none;stroke-width:0.019652"
       id="path921" />
  </g>
</svg>
