<?xml version="1.0" encoding="UTF-8"?>
<svg width="76.336mm" height="36.649mm" version="1.1" viewBox="0 0 76.336 36.649" xmlns="http://www.w3.org/2000/svg">
 <defs>
  <marker id="EmptyTriangleInM" overflow="visible" orient="auto">
   <path transform="matrix(-.4 0 0 -.4 1.8 0)" d="m5.77 0-8.65 5v-10z" fill="#fff" fill-rule="evenodd" stroke="#000" stroke-width="1pt"/>
  </marker>
 </defs>
 <g transform="translate(-49.15 -109.99)">
  <path d="m113.77 111.12h10.583v10.583h-10.583zm-10.583 0h10.583v10.583h-10.583zm-10.583 0h10.583v10.583h-10.583zm-10.583 0h10.583v10.583h-10.583zm-10.583 0h10.583v10.583h-10.583zm-10.583 0h10.583v10.583h-10.583z" fill="none" stroke="#000" stroke-width=".26458"/>
  <text transform="translate(1.5119)" x="43.745857" y="137.58333" font-family="'CMU Serif'" font-size="3.5278px" letter-spacing="0px" stroke-width=".26458" text-align="center" word-spacing="0px" style="line-height:1.25;shape-inside:url(#rect39);white-space:pre" xml:space="preserve"><tspan x="50.271484" y="135.55351"><tspan font-size="3.175px" stroke-width=".26458" text-align="start">Each box is a space in </tspan></tspan><tspan x="50.271484" y="139.96323"><tspan font-size="3.175px" stroke-width=".26458" text-align="start">RAM that can be </tspan></tspan><tspan x="50.271484" y="144.37294"><tspan font-size="3.175px" stroke-width=".26458" text-align="start">occupied by data.</tspan></tspan></text>
  <rect x="50.271" y="132.29" width="37.042" height="13.229" fill="none" stroke="#000" stroke-width=".24153"/>
  <g fill="#b3b3b3" fill-opacity=".59109" stroke="#000" stroke-linejoin="round" stroke-opacity=".40081" stroke-width=".44544">
   <path transform="scale(.26458)" d="m230.71 440v-19.286h38.571v38.571h-18.571v-9.6428c0-5.9524-0.27337-9.6429-0.71429-9.6429s-0.71429 3.6905-0.71429 9.6429v9.6428h-18.571z"/>
   <path transform="scale(.26458)" d="m270.71 440v-19.286h38.571v38.571h-38.571z"/>
   <path transform="scale(.26458)" d="m310.71 440v-19.286h38.571v38.571h-38.571z"/>
   <path transform="scale(.26458)" d="m350.71 440v-19.286h38.571v38.571h-38.571z"/>
   <path transform="scale(.26458)" d="m390.71 440v-19.286h38.571v38.571h-38.571z"/>
   <path transform="scale(.26458)" d="m430.71 440v-19.286h38.571v38.571h-38.571z"/>
  </g>
  <path d="m66.146 116.42v15.875" fill="none" marker-start="url(#EmptyTriangleInM)" stroke="#000" stroke-width=".265"/>
 </g>
</svg>
