<?xml version="1.0" encoding="UTF-8"?>
<svg width="164.89mm" height="99.53mm" version="1.1" viewBox="0 0 164.89 99.53" xmlns="http://www.w3.org/2000/svg">
 <defs>
  <marker id="marker1775" overflow="visible" orient="auto">
   <path transform="matrix(.8 0 0 .8 -4.8 0)" d="m5.77 0-8.65 5v-10z" fill="#fff" fill-rule="evenodd" stroke="#000" stroke-width="1pt"/>
  </marker>
  <marker id="marker1765" overflow="visible" orient="auto">
   <path transform="matrix(.8 0 0 .8 -4.8 0)" d="m5.77 0-8.65 5v-10z" fill="#fff" fill-rule="evenodd" stroke="#000" stroke-width="1pt"/>
  </marker>
  <marker id="marker1336" overflow="visible" orient="auto">
   <path transform="matrix(.4 0 0 .4 2.96 .4)" d="m-2.5-1c0 2.76-2.24 5-5 5s-5-2.24-5-5 2.24-5 5-5 5 2.24 5 5z" fill-rule="evenodd" stroke="#000" stroke-width="1pt"/>
  </marker>
  <marker id="DotM" overflow="visible" orient="auto">
   <path transform="matrix(.4 0 0 .4 2.96 .4)" d="m-2.5-1c0 2.76-2.24 5-5 5s-5-2.24-5-5 2.24-5 5-5 5 2.24 5 5z" fill-rule="evenodd" stroke="#000" stroke-width="1pt"/>
  </marker>
  <marker id="marker1217" overflow="visible" orient="auto">
   <path transform="matrix(.8 0 0 .8 -4.8 0)" d="m5.77 0-8.65 5v-10z" fill="#fff" fill-rule="evenodd" stroke="#000" stroke-width="1pt"/>
  </marker>
 </defs>
 <g transform="translate(-13.106 -68.672)">
  <g fill="none" stroke="#000" stroke-width=".26458">
   <rect x="31.75" y="105.83" width="10.583" height="10.583"/>
   <rect x="42.333" y="105.83" width="10.583" height="10.583"/>
   <rect x="52.917" y="105.83" width="10.583" height="10.583"/>
   <rect x="63.5" y="105.83" width="10.583" height="10.583"/>
   <rect x="74.083" y="105.83" width="10.583" height="10.583"/>
  </g>
  <rect x="84.667" y="105.83" width="10.583" height="10.583" fill="#faa" fill-rule="evenodd" stroke="#000" stroke-width=".26458"/>
  <g fill="none" stroke="#000" stroke-width=".26458">
   <rect x="95.25" y="105.83" width="10.583" height="10.583"/>
   <rect x="105.83" y="105.83" width="10.583" height="10.583"/>
   <rect x="116.42" y="105.83" width="10.583" height="10.583"/>
   <rect x="84.667" y="121.71" width="10.583" height="10.583"/>
   <rect x="95.25" y="121.71" width="10.583" height="10.583"/>
   <rect x="105.83" y="121.71" width="10.583" height="10.583"/>
  </g>
  <rect x="116.42" y="121.71" width="10.583" height="10.583" fill="#faa" fill-rule="evenodd" stroke="#000" stroke-width=".26458"/>
  <g fill="none" stroke="#000" stroke-width=".26458">
   <rect x="127" y="105.83" width="10.583" height="10.583"/>
   <rect x="127" y="121.71" width="10.583" height="10.583"/>
   <rect x="137.58" y="105.83" width="10.583" height="10.583"/>
   <rect x="137.58" y="121.71" width="10.583" height="10.583"/>
  </g>
  <rect x="148.17" y="105.83" width="10.583" height="10.583" fill="#afe9dd" fill-rule="evenodd" stroke="#000" stroke-width=".26458"/>
  <rect x="148.17" y="121.71" width="10.583" height="10.583" fill="#afe9dd" fill-rule="evenodd" stroke="#000" stroke-width=".26458"/>
  <g fill="none" stroke="#000" stroke-width=".26458">
   <rect x="127" y="137.58" width="10.583" height="10.583"/>
   <rect x="137.58" y="137.58" width="10.583" height="10.583"/>
   <rect x="148.17" y="137.58" width="10.583" height="10.583"/>
  </g>
  <g fill-rule="evenodd" stroke="#000" stroke-width=".26458">
   <rect x="137.58" y="137.58" width="10.583" height="10.583" fill="#faa"/>
   <rect x="148.17" y="137.58" width="10.583" height="10.583" fill="#87decd"/>
   <rect x="148.17" y="153.46" width="10.583" height="10.583" fill="#afe9af"/>
  </g>
  <g fill="none" stroke="#000">
   <path d="m158.75 111.12c18.521 7.9375 0 15.875 0 15.875" marker-end="url(#marker1765)" stroke-width=".265"/>
   <g stroke-width=".26458px">
    <path d="m158.75 127c18.521 7.9375 0 15.875 0 15.875" marker-end="url(#marker1775)"/>
    <path d="m158.75 142.88c18.521 7.9375 0 15.875 0 15.875" marker-end="url(#marker1217)"/>
    <path d="m161.4 82.021-7.9375 29.104" marker-end="url(#DotM)"/>
   </g>
  </g>
  <g transform="matrix(1.2 0 0 1.25 -13.229 -20.505)">
   <text transform="matrix(.9618 0 0 .9618 6.525 3.1896)" x="137.70911" y="63.5" font-family="'CMU Serif'" font-size="3.5278px" letter-spacing="0px" stroke-width=".26458" text-align="center" word-spacing="0px" style="line-height:1.25;shape-inside:url(#rect1273);white-space:pre" xml:space="preserve"><tspan x="132.79883" y="74.994428"><tspan font-size="3.8461px" stroke-width=".26458" text-align="start">The value we </tspan></tspan><tspan x="132.79883" y="79.802106"><tspan font-size="3.8461px" stroke-width=".26458" text-align="start">are looking for</tspan></tspan></text>
   <rect x="132.8" y="71.438" width="26.458" height="10.583" fill="none" stroke="#000" stroke-width=".1907"/>
   <g fill="#b3b3b3" fill-opacity=".59109" stroke="#000" stroke-linejoin="round" stroke-miterlimit="3.9" stroke-opacity=".87097" stroke-width="1.0102">
    <path transform="matrix(.22049 0 0 .21167 11.024 16.404)" d="m121.2 420.09v-18.688h37.376v37.376h-37.376z"/>
    <path transform="matrix(.22049 0 0 .21167 11.024 16.404)" d="m160.59 420.09v-18.688h38.386v37.376h-38.386z"/>
    <path transform="matrix(.22049 0 0 .21167 11.024 16.404)" d="m201 420.09v-18.688h38.386v37.376h-38.386z"/>
    <path transform="matrix(.22049 0 0 .21167 11.024 16.404)" d="m241.41 420.09v-18.688h37.376v37.376h-37.376z"/>
    <path transform="matrix(.22049 0 0 .21167 11.024 16.404)" d="m280.8 420.09v-18.688h38.386v37.376h-38.386z"/>
    <path transform="matrix(.22049 0 0 .21167 11.024 16.404)" d="m321.21 480.2v-19.193h37.376v38.386h-37.376z"/>
    <path transform="matrix(.22049 0 0 .21167 11.024 16.404)" d="m360.6 480.2v-19.193h38.386v38.386h-38.386z"/>
    <path transform="matrix(.22049 0 0 .21167 11.024 16.404)" d="m401.01 480.2v-19.193h38.386v38.386h-38.386z"/>
    <path transform="matrix(.22049 0 0 .21167 11.024 16.404)" d="m480.81 539.8v-19.193h38.386v38.386h-38.386z"/>
   </g>
   <path d="m37.483 110.6v1.0583h44.097v-1.0583" fill="none" stroke="#000" stroke-width=".21603px"/>
   <text transform="scale(1.0206 .9798)" x="58.103447" y="116.88065" font-family="'CMU Serif'" font-size="2.8804px" letter-spacing="0px" stroke-width=".21603" text-align="center" text-anchor="middle" word-spacing="0px" style="line-height:1.25" xml:space="preserve"><tspan x="58.103447" y="116.88065" font-family="'CMU Serif'" font-style="italic" font-weight="500" stroke-width=".21603">discard</tspan></text>
   <path d="m81.58 123.3v1.0583h26.458v-1.0583" fill="none" stroke="#000" stroke-width=".21603px"/>
   <text transform="scale(1.0206 .9798)" x="92.668457" y="129.62431" font-family="'CMU Serif'" font-size="2.8804px" letter-spacing="0px" stroke-width=".21603" text-align="center" text-anchor="middle" word-spacing="0px" style="line-height:1.25" xml:space="preserve"><tspan x="92.668457" y="129.62431" font-style="italic" stroke-width=".21603">discard</tspan></text>
   <path d="m116.86 136v1.0583h8.8194v-1.0583" fill="none" stroke="#000" stroke-width=".21603px"/>
   <g font-family="'CMU Serif'" font-size="2.8804px" letter-spacing="0px" stroke-width=".21603" text-anchor="middle" word-spacing="0px">
    <text transform="scale(1.0206 .9798)" x="118.59222" y="142.44418" text-align="center" style="line-height:1.25" xml:space="preserve"><tspan x="118.59222" y="142.44418" font-family="'CMU Serif'" font-style="italic" font-weight="500" stroke-width=".21603">discard</tspan></text>
    <text transform="scale(1.0206 .9798)" x="135.92818" y="153.4859" text-align="center" style="line-height:1.25" xml:space="preserve"><tspan x="135.92818" y="153.4859" font-family="'CMU Serif'" font-style="italic" font-weight="bold" stroke-width=".21603">value found</tspan></text>
    <text transform="scale(1.0206 .9798)" x="26.033449" y="108.23217" text-align="center" style="line-height:1.25" xml:space="preserve"><tspan x="26.033449" y="108.23217" stroke-width=".21603">Step 1</tspan></text>
    <text transform="scale(1.0206 .9798)" x="25.684181" y="121.21654" text-align="center" style="line-height:1.25" xml:space="preserve"><tspan x="25.684181" y="121.21654" stroke-width=".21603">Step 2</tspan></text>
    <text transform="scale(1.0206 .9798)" x="25.334911" y="134.09178" text-align="center" style="line-height:1.25" xml:space="preserve"><tspan x="25.334911" y="134.09178" stroke-width=".21603">Step 3</tspan></text>
   </g>
  </g>
  <path d="m89.958 111.12v-29.104" fill="none" marker-start="url(#marker1336)" stroke="#000" stroke-width=".26458px"/>
  <g transform="matrix(1.1305 0 0 1.1305 30.136 -13.705)">
   <text x="87.3125" y="74.083336" font-family="'CMU Serif'" font-size="3.5278px" letter-spacing="0px" stroke-width=".26458" text-align="center" word-spacing="0px" style="line-height:1.25;shape-inside:url(#rect1362);white-space:pre" xml:space="preserve"><tspan x="40.187392" y="82.637498"><tspan stroke-width=".26458">The middle split</tspan></tspan></text>
   <rect x="39.688" y="79.375" width="26.458" height="5.2917" fill="none" stroke="#000" stroke-width=".16734"/>
  </g>
 </g>
</svg>
