<?xml version="1.0" encoding="UTF-8" standalone="no"?>
<svg
   xmlns:dc="http://purl.org/dc/elements/1.1/"
   xmlns:cc="http://creativecommons.org/ns#"
   xmlns:rdf="http://www.w3.org/1999/02/22-rdf-syntax-ns#"
   xmlns:svg="http://www.w3.org/2000/svg"
   xmlns="http://www.w3.org/2000/svg"
   xmlns:sodipodi="http://sodipodi.sourceforge.net/DTD/sodipodi-0.dtd"
   xmlns:inkscape="http://www.inkscape.org/namespaces/inkscape"
   width="33.428062mm"
   height="95.288864mm"
   viewBox="0 0 33.428062 95.288864"
   version="1.1"
   id="svg8"
   inkscape:version="1.0.2 (e86c8708, 2021-01-15)"
   sodipodi:docname="lightbulbpossibilites.svg">
  <defs
     id="defs2" />
  <sodipodi:namedview
     id="base"
     pagecolor="#ffffff"
     bordercolor="#666666"
     borderopacity="1.0"
     inkscape:pageopacity="0.0"
     inkscape:pageshadow="2"
     inkscape:zoom="0.7"
     inkscape:cx="81.306966"
     inkscape:cy="163.78735"
     inkscape:document-units="mm"
     inkscape:current-layer="layer1"
     inkscape:document-rotation="0"
     showgrid="true"
     inkscape:snap-object-midpoints="true"
     inkscape:snap-center="true"
     lock-margins="true"
     fit-margin-top="2"
     fit-margin-left="2"
     fit-margin-right="2"
     fit-margin-bottom="2"
     inkscape:window-width="1252"
     inkscape:window-height="943"
     inkscape:window-x="716"
     inkscape:window-y="75"
     inkscape:window-maximized="0" />
  <metadata
     id="metadata5">
    <rdf:RDF>
      <cc:Work
         rdf:about="">
        <dc:format>image/svg+xml</dc:format>
        <dc:type
           rdf:resource="http://purl.org/dc/dcmitype/StillImage" />
        <dc:title></dc:title>
      </cc:Work>
    </rdf:RDF>
  </metadata>
  <g
     inkscape:label="Layer 1"
     inkscape:groupmode="layer"
     id="layer1"
     style="display:inline"
     transform="translate(-93.088067,-139.39018)">
    <g
       id="g1464"
       transform="matrix(1.2222226,0,0,1.2222226,-29.849572,-55.769145)">
      <g
         transform="translate(-52.240005,9.07375)"
         id="g1454">
        <circle
           cx="157.24001"
           cy="165.60001"
           r="2.6458001"
           fill="none"
           stroke="#000000"
           stroke-linejoin="round"
           stroke-width="0.265"
           id="circle1448" />
        <text
           x="157.29443"
           y="170.89636"
           font-family="'CMU Serif'"
           font-size="2.1167px"
           stroke-width="0.26458"
           text-align="center"
           text-anchor="middle"
           style="line-height:1.25"
           xml:space="preserve"
           id="text1452"><tspan
             x="157.29443"
             y="170.89636"
             stroke-width="0.26458"
             id="tspan1450">off; 1</tspan></text>
      </g>
    </g>
    <g
       id="g1471"
       transform="matrix(1.2222226,0,0,1.2222226,-21.166705,-55.791202)">
      <rect
         style="fill:none;fill-rule:evenodd;stroke-width:0.264583"
         id="rect3358"
         width="5.2916665"
         height="5.2916665"
         x="113.77083"
         y="174.625" />
      <circle
         style="fill:none;fill-opacity:0.753036;stroke:#000000;stroke-width:0.264999;stroke-linejoin:round"
         id="path3362"
         cx="116.41667"
         cy="174.6918"
         r="2.6458333" />
      <text
         xml:space="preserve"
         style="font-size:2.11667px;line-height:1.25;font-family:'CMU Serif';-inkscape-font-specification:'CMU Serif, Normal';text-align:center;text-anchor:middle;stroke-width:0.264583"
         x="116.4296"
         y="179.98349"
         id="text3368"><tspan
           sodipodi:role="line"
           id="tspan3366"
           x="116.4296"
           y="179.98349"
           style="stroke-width:0.264583">on; 0</tspan></text>
      <path
         style="fill:#ffffbf;fill-opacity:0.923077;stroke:#000000;stroke-width:0.0473215;stroke-linejoin:round"
         d="m 115.84511,177.11287 c -0.87149,-0.21117 -1.60564,-0.92936 -1.83836,-1.79837 -0.0956,-0.35712 -0.0818,-0.99683 0.0294,-1.35679 0.24442,-0.79133 0.93914,-1.4521 1.75502,-1.66925 0.33025,-0.0879 0.89573,-0.087 1.23738,0.002 1.22941,0.32022 2.03875,1.55894 1.82942,2.79999 -0.23505,1.39355 -1.6602,2.35019 -3.01288,2.02242 z"
         id="path3374" />
    </g>
    <g
       id="g2201"
       transform="matrix(1.2222226,0,0,1.2222226,-29.849572,-68.704333)">
      <g
         transform="translate(-52.240005,9.07375)"
         id="g2199">
        <circle
           cx="157.24001"
           cy="165.60001"
           r="2.6458001"
           fill="none"
           stroke="#000000"
           stroke-linejoin="round"
           stroke-width="0.265"
           id="circle2193" />
        <text
           x="157.29443"
           y="170.89636"
           font-family="'CMU Serif'"
           font-size="2.1167px"
           stroke-width="0.26458"
           text-align="center"
           text-anchor="middle"
           style="line-height:1.25"
           xml:space="preserve"
           id="text2197"><tspan
             x="157.29443"
             y="170.89636"
             stroke-width="0.26458"
             id="tspan2195">off; 1</tspan></text>
      </g>
    </g>
    <g
       id="g2211"
       transform="matrix(1.2222226,0,0,1.2222226,-18.531282,-68.704333)">
      <g
         transform="translate(-52.240005,9.07375)"
         id="g2209">
        <circle
           cx="157.24001"
           cy="165.60001"
           r="2.6458001"
           fill="none"
           stroke="#000000"
           stroke-linejoin="round"
           stroke-width="0.265"
           id="circle2203" />
        <text
           x="157.29443"
           y="170.89636"
           font-family="'CMU Serif'"
           font-size="2.1167px"
           stroke-width="0.26458"
           text-align="center"
           text-anchor="middle"
           style="line-height:1.25"
           xml:space="preserve"
           id="text2207"><tspan
             x="157.29443"
             y="170.89636"
             stroke-width="0.26458"
             id="tspan2205">off; 1</tspan></text>
      </g>
    </g>
    <g
       id="g2221"
       transform="matrix(1.2222226,0,0,1.2222226,-7.2129917,-68.704333)">
      <g
         transform="translate(-52.240005,9.07375)"
         id="g2219">
        <circle
           cx="157.24001"
           cy="165.60001"
           r="2.6458001"
           fill="none"
           stroke="#000000"
           stroke-linejoin="round"
           stroke-width="0.265"
           id="circle2213" />
        <text
           x="157.29443"
           y="170.89636"
           font-family="'CMU Serif'"
           font-size="2.1167px"
           stroke-width="0.26458"
           text-align="center"
           text-anchor="middle"
           style="line-height:1.25"
           xml:space="preserve"
           id="text2217"><tspan
             x="157.29443"
             y="170.89636"
             stroke-width="0.26458"
             id="tspan2215">off; 1</tspan></text>
      </g>
    </g>
    <g
       id="g2231"
       transform="matrix(1.2222226,0,0,1.2222226,-18.531282,-55.769145)">
      <g
         transform="translate(-52.240005,9.07375)"
         id="g2229">
        <circle
           cx="157.24001"
           cy="165.60001"
           r="2.6458001"
           fill="none"
           stroke="#000000"
           stroke-linejoin="round"
           stroke-width="0.265"
           id="circle2223" />
        <text
           x="157.29443"
           y="170.89636"
           font-family="'CMU Serif'"
           font-size="2.1167px"
           stroke-width="0.26458"
           text-align="center"
           text-anchor="middle"
           style="line-height:1.25"
           xml:space="preserve"
           id="text2227"><tspan
             x="157.29443"
             y="170.89636"
             stroke-width="0.26458"
             id="tspan2225">off; 1</tspan></text>
      </g>
    </g>
    <g
       id="g2241"
       transform="matrix(1.2222226,0,0,1.2222226,-29.849572,-44.450854)">
      <g
         transform="translate(-52.240005,9.07375)"
         id="g2239">
        <circle
           cx="157.24001"
           cy="165.60001"
           r="2.6458001"
           fill="none"
           stroke="#000000"
           stroke-linejoin="round"
           stroke-width="0.265"
           id="circle2233" />
        <text
           x="157.29443"
           y="170.89636"
           font-family="'CMU Serif'"
           font-size="2.1167px"
           stroke-width="0.26458"
           text-align="center"
           text-anchor="middle"
           style="line-height:1.25"
           xml:space="preserve"
           id="text2237"><tspan
             x="157.29443"
             y="170.89636"
             stroke-width="0.26458"
             id="tspan2235">off; 1</tspan></text>
      </g>
    </g>
    <g
       id="g2253"
       transform="matrix(1.2222226,0,0,1.2222226,-32.484995,-44.472911)">
      <rect
         style="fill:none;fill-rule:evenodd;stroke-width:0.264583"
         id="rect2243"
         width="5.2916665"
         height="5.2916665"
         x="113.77083"
         y="174.625" />
      <circle
         style="fill:none;fill-opacity:0.753036;stroke:#000000;stroke-width:0.264999;stroke-linejoin:round"
         id="circle2245"
         cx="116.41667"
         cy="174.6918"
         r="2.6458333" />
      <text
         xml:space="preserve"
         style="font-size:2.11667px;line-height:1.25;font-family:'CMU Serif';-inkscape-font-specification:'CMU Serif, Normal';text-align:center;text-anchor:middle;stroke-width:0.264583"
         x="116.4296"
         y="179.98349"
         id="text2249"><tspan
           sodipodi:role="line"
           id="tspan2247"
           x="116.4296"
           y="179.98349"
           style="stroke-width:0.264583">on; 0</tspan></text>
      <path
         style="fill:#ffffbf;fill-opacity:0.923077;stroke:#000000;stroke-width:0.0473215;stroke-linejoin:round"
         d="m 115.84511,177.11287 c -0.87149,-0.21117 -1.60564,-0.92936 -1.83836,-1.79837 -0.0956,-0.35712 -0.0818,-0.99683 0.0294,-1.35679 0.24442,-0.79133 0.93914,-1.4521 1.75502,-1.66925 0.33025,-0.0879 0.89573,-0.087 1.23738,0.002 1.22941,0.32022 2.03875,1.55894 1.82942,2.79999 -0.23505,1.39355 -1.6602,2.35019 -3.01288,2.02242 z"
         id="path2251" />
    </g>
    <g
       id="g2263"
       transform="matrix(1.2222226,0,0,1.2222226,-7.2129917,-44.450854)">
      <g
         transform="translate(-52.240005,9.07375)"
         id="g2261">
        <circle
           cx="157.24001"
           cy="165.60001"
           r="2.6458001"
           fill="none"
           stroke="#000000"
           stroke-linejoin="round"
           stroke-width="0.265"
           id="circle2255" />
        <text
           x="157.29443"
           y="170.89636"
           font-family="'CMU Serif'"
           font-size="2.1167px"
           stroke-width="0.26458"
           text-align="center"
           text-anchor="middle"
           style="line-height:1.25"
           xml:space="preserve"
           id="text2259"><tspan
             x="157.29443"
             y="170.89636"
             stroke-width="0.26458"
             id="tspan2257">off; 1</tspan></text>
      </g>
    </g>
    <g
       id="g2273"
       transform="matrix(1.2222226,0,0,1.2222226,-29.849572,-33.132564)">
      <g
         transform="translate(-52.240005,9.07375)"
         id="g2271">
        <circle
           cx="157.24001"
           cy="165.60001"
           r="2.6458001"
           fill="none"
           stroke="#000000"
           stroke-linejoin="round"
           stroke-width="0.265"
           id="circle2265" />
        <text
           x="157.29443"
           y="170.89636"
           font-family="'CMU Serif'"
           font-size="2.1167px"
           stroke-width="0.26458"
           text-align="center"
           text-anchor="middle"
           style="line-height:1.25"
           xml:space="preserve"
           id="text2269"><tspan
             x="157.29443"
             y="170.89636"
             stroke-width="0.26458"
             id="tspan2267">off; 1</tspan></text>
      </g>
    </g>
    <g
       id="g2285"
       transform="matrix(1.2222226,0,0,1.2222226,-32.484995,-33.154622)">
      <rect
         style="fill:none;fill-rule:evenodd;stroke-width:0.264583"
         id="rect2275"
         width="5.2916665"
         height="5.2916665"
         x="113.77083"
         y="174.625" />
      <circle
         style="fill:none;fill-opacity:0.753036;stroke:#000000;stroke-width:0.264999;stroke-linejoin:round"
         id="circle2277"
         cx="116.41667"
         cy="174.6918"
         r="2.6458333" />
      <text
         xml:space="preserve"
         style="font-size:2.11667px;line-height:1.25;font-family:'CMU Serif';-inkscape-font-specification:'CMU Serif, Normal';text-align:center;text-anchor:middle;stroke-width:0.264583"
         x="116.4296"
         y="179.98349"
         id="text2281"><tspan
           sodipodi:role="line"
           id="tspan2279"
           x="116.4296"
           y="179.98349"
           style="stroke-width:0.264583">on; 0</tspan></text>
      <path
         style="fill:#ffffbf;fill-opacity:0.923077;stroke:#000000;stroke-width:0.0473215;stroke-linejoin:round"
         d="m 115.84511,177.11287 c -0.87149,-0.21117 -1.60564,-0.92936 -1.83836,-1.79837 -0.0956,-0.35712 -0.0818,-0.99683 0.0294,-1.35679 0.24442,-0.79133 0.93914,-1.4521 1.75502,-1.66925 0.33025,-0.0879 0.89573,-0.087 1.23738,0.002 1.22941,0.32022 2.03875,1.55894 1.82942,2.79999 -0.23505,1.39355 -1.6602,2.35019 -3.01288,2.02242 z"
         id="path2283" />
    </g>
    <g
       id="g2297"
       transform="matrix(1.2222226,0,0,1.2222226,-21.166719,-33.164756)">
      <rect
         style="fill:none;fill-rule:evenodd;stroke-width:0.264583"
         id="rect2287"
         width="5.2916665"
         height="5.2916665"
         x="113.77083"
         y="174.625" />
      <circle
         style="fill:none;fill-opacity:0.753036;stroke:#000000;stroke-width:0.264999;stroke-linejoin:round"
         id="circle2289"
         cx="116.41667"
         cy="174.6918"
         r="2.6458333" />
      <text
         xml:space="preserve"
         style="font-size:2.11667px;line-height:1.25;font-family:'CMU Serif';-inkscape-font-specification:'CMU Serif, Normal';text-align:center;text-anchor:middle;stroke-width:0.264583"
         x="116.4296"
         y="179.98349"
         id="text2293"><tspan
           sodipodi:role="line"
           id="tspan2291"
           x="116.4296"
           y="179.98349"
           style="stroke-width:0.264583">on; 0</tspan></text>
      <path
         style="fill:#ffffbf;fill-opacity:0.923077;stroke:#000000;stroke-width:0.0473215;stroke-linejoin:round"
         d="m 115.84511,177.11287 c -0.87149,-0.21117 -1.60564,-0.92936 -1.83836,-1.79837 -0.0956,-0.35712 -0.0818,-0.99683 0.0294,-1.35679 0.24442,-0.79133 0.93914,-1.4521 1.75502,-1.66925 0.33025,-0.0879 0.89573,-0.087 1.23738,0.002 1.22941,0.32022 2.03875,1.55894 1.82942,2.79999 -0.23505,1.39355 -1.6602,2.35019 -3.01288,2.02242 z"
         id="path2295" />
    </g>
    <g
       id="g2309"
       transform="matrix(1.2222226,0,0,1.2222226,-43.803279,-22.085827)">
      <rect
         style="fill:none;fill-rule:evenodd;stroke-width:0.264583"
         id="rect2299"
         width="5.2916665"
         height="5.2916665"
         x="113.77083"
         y="174.625" />
      <circle
         style="fill:none;fill-opacity:0.753036;stroke:#000000;stroke-width:0.264999;stroke-linejoin:round"
         id="circle2301"
         cx="116.41667"
         cy="174.6918"
         r="2.6458333" />
      <text
         xml:space="preserve"
         style="font-size:2.11667px;line-height:1.25;font-family:'CMU Serif';-inkscape-font-specification:'CMU Serif, Normal';text-align:center;text-anchor:middle;stroke-width:0.264583"
         x="116.4296"
         y="179.98349"
         id="text2305"><tspan
           sodipodi:role="line"
           id="tspan2303"
           x="116.4296"
           y="179.98349"
           style="stroke-width:0.264583">on; 0</tspan></text>
      <path
         style="fill:#ffffbf;fill-opacity:0.923077;stroke:#000000;stroke-width:0.0473215;stroke-linejoin:round"
         d="m 115.84511,177.11287 c -0.87149,-0.21117 -1.60564,-0.92936 -1.83836,-1.79837 -0.0956,-0.35712 -0.0818,-0.99683 0.0294,-1.35679 0.24442,-0.79133 0.93914,-1.4521 1.75502,-1.66925 0.33025,-0.0879 0.89573,-0.087 1.23738,0.002 1.22941,0.32022 2.03875,1.55894 1.82942,2.79999 -0.23505,1.39355 -1.6602,2.35019 -3.01288,2.02242 z"
         id="path2307" />
    </g>
    <g
       id="g2321"
       transform="matrix(1.2222226,0,0,1.2222226,-43.803279,-10.767537)">
      <rect
         style="fill:none;fill-rule:evenodd;stroke-width:0.264583"
         id="rect2311"
         width="5.2916665"
         height="5.2916665"
         x="113.77083"
         y="174.625" />
      <circle
         style="fill:none;fill-opacity:0.753036;stroke:#000000;stroke-width:0.264999;stroke-linejoin:round"
         id="circle2313"
         cx="116.41667"
         cy="174.6918"
         r="2.6458333" />
      <text
         xml:space="preserve"
         style="font-size:2.11667px;line-height:1.25;font-family:'CMU Serif';-inkscape-font-specification:'CMU Serif, Normal';text-align:center;text-anchor:middle;stroke-width:0.264583"
         x="116.4296"
         y="179.98349"
         id="text2317"><tspan
           sodipodi:role="line"
           id="tspan2315"
           x="116.4296"
           y="179.98349"
           style="stroke-width:0.264583">on; 0</tspan></text>
      <path
         style="fill:#ffffbf;fill-opacity:0.923077;stroke:#000000;stroke-width:0.0473215;stroke-linejoin:round"
         d="m 115.84511,177.11287 c -0.87149,-0.21117 -1.60564,-0.92936 -1.83836,-1.79837 -0.0956,-0.35712 -0.0818,-0.99683 0.0294,-1.35679 0.24442,-0.79133 0.93914,-1.4521 1.75502,-1.66925 0.33025,-0.0879 0.89573,-0.087 1.23738,0.002 1.22941,0.32022 2.03875,1.55894 1.82942,2.79999 -0.23505,1.39355 -1.6602,2.35019 -3.01288,2.02242 z"
         id="path2319" />
    </g>
    <g
       id="g2343"
       transform="matrix(1.2222226,0,0,1.2222226,-18.531282,-22.066646)">
      <g
         transform="translate(-52.240005,9.07375)"
         id="g2341">
        <circle
           cx="157.24001"
           cy="165.60001"
           r="2.6458001"
           fill="none"
           stroke="#000000"
           stroke-linejoin="round"
           stroke-width="0.265"
           id="circle2335" />
        <text
           x="157.29443"
           y="170.89636"
           font-family="'CMU Serif'"
           font-size="2.1167px"
           stroke-width="0.26458"
           text-align="center"
           text-anchor="middle"
           style="line-height:1.25"
           xml:space="preserve"
           id="text2339"><tspan
             x="157.29443"
             y="170.89636"
             stroke-width="0.26458"
             id="tspan2337">off; 1</tspan></text>
      </g>
    </g>
    <g
       id="g2353"
       transform="matrix(1.2222226,0,0,1.2222226,-7.2129917,-22.066646)">
      <g
         transform="translate(-52.240005,9.07375)"
         id="g2351">
        <circle
           cx="157.24001"
           cy="165.60001"
           r="2.6458001"
           fill="none"
           stroke="#000000"
           stroke-linejoin="round"
           stroke-width="0.265"
           id="circle2345" />
        <text
           x="157.29443"
           y="170.89636"
           font-family="'CMU Serif'"
           font-size="2.1167px"
           stroke-width="0.26458"
           text-align="center"
           text-anchor="middle"
           style="line-height:1.25"
           xml:space="preserve"
           id="text2349"><tspan
             x="157.29443"
             y="170.89636"
             stroke-width="0.26458"
             id="tspan2347">off; 1</tspan></text>
      </g>
    </g>
    <g
       id="g2363"
       transform="matrix(1.2222226,0,0,1.2222226,-18.531282,-10.748356)">
      <g
         transform="translate(-52.240005,9.07375)"
         id="g2361">
        <circle
           cx="157.24001"
           cy="165.60001"
           r="2.6458001"
           fill="none"
           stroke="#000000"
           stroke-linejoin="round"
           stroke-width="0.265"
           id="circle2355" />
        <text
           x="157.29443"
           y="170.89636"
           font-family="'CMU Serif'"
           font-size="2.1167px"
           stroke-width="0.26458"
           text-align="center"
           text-anchor="middle"
           style="line-height:1.25"
           xml:space="preserve"
           id="text2359"><tspan
             x="157.29443"
             y="170.89636"
             stroke-width="0.26458"
             id="tspan2357">off; 1</tspan></text>
      </g>
    </g>
    <g
       id="g2375"
       transform="matrix(1.2222226,0,0,1.2222226,-21.166705,-10.518041)">
      <rect
         style="fill:none;fill-rule:evenodd;stroke-width:0.264583"
         id="rect2365"
         width="5.2916665"
         height="5.2916665"
         x="113.77083"
         y="174.625" />
      <circle
         style="fill:none;fill-opacity:0.753036;stroke:#000000;stroke-width:0.264999;stroke-linejoin:round"
         id="circle2367"
         cx="116.41667"
         cy="174.6918"
         r="2.6458333" />
      <text
         xml:space="preserve"
         style="font-size:2.11667px;line-height:1.25;font-family:'CMU Serif';-inkscape-font-specification:'CMU Serif, Normal';text-align:center;text-anchor:middle;stroke-width:0.264583"
         x="116.4296"
         y="179.98349"
         id="text2371"><tspan
           sodipodi:role="line"
           id="tspan2369"
           x="116.4296"
           y="179.98349"
           style="stroke-width:0.264583">on; 0</tspan></text>
      <path
         style="fill:#ffffbf;fill-opacity:0.923077;stroke:#000000;stroke-width:0.0473215;stroke-linejoin:round"
         d="m 115.84511,177.11287 c -0.87149,-0.21117 -1.60564,-0.92936 -1.83836,-1.79837 -0.0956,-0.35712 -0.0818,-0.99683 0.0294,-1.35679 0.24442,-0.79133 0.93914,-1.4521 1.75502,-1.66925 0.33025,-0.0879 0.89573,-0.087 1.23738,0.002 1.22941,0.32022 2.03875,1.55894 1.82942,2.79999 -0.23505,1.39355 -1.6602,2.35019 -3.01288,2.02242 z"
         id="path2373" />
    </g>
    <g
       id="g2387"
       transform="matrix(1.2222226,0,0,1.2222226,-43.803279,0.55075396)">
      <rect
         style="fill:none;fill-rule:evenodd;stroke-width:0.264583"
         id="rect2377"
         width="5.2916665"
         height="5.2916665"
         x="113.77083"
         y="174.625" />
      <circle
         style="fill:none;fill-opacity:0.753036;stroke:#000000;stroke-width:0.264999;stroke-linejoin:round"
         id="circle2379"
         cx="116.41667"
         cy="174.6918"
         r="2.6458333" />
      <text
         xml:space="preserve"
         style="font-size:2.11667px;line-height:1.25;font-family:'CMU Serif';-inkscape-font-specification:'CMU Serif, Normal';text-align:center;text-anchor:middle;stroke-width:0.264583"
         x="116.4296"
         y="179.98349"
         id="text2383"><tspan
           sodipodi:role="line"
           id="tspan2381"
           x="116.4296"
           y="179.98349"
           style="stroke-width:0.264583">on; 0</tspan></text>
      <path
         style="fill:#ffffbf;fill-opacity:0.923077;stroke:#000000;stroke-width:0.0473215;stroke-linejoin:round"
         d="m 115.84511,177.11287 c -0.87149,-0.21117 -1.60564,-0.92936 -1.83836,-1.79837 -0.0956,-0.35712 -0.0818,-0.99683 0.0294,-1.35679 0.24442,-0.79133 0.93914,-1.4521 1.75502,-1.66925 0.33025,-0.0879 0.89573,-0.087 1.23738,0.002 1.22941,0.32022 2.03875,1.55894 1.82942,2.79999 -0.23505,1.39355 -1.6602,2.35019 -3.01288,2.02242 z"
         id="path2385" />
    </g>
    <g
       id="g2399"
       transform="matrix(1.2222226,0,0,1.2222226,-32.484999,0.55075396)">
      <rect
         style="fill:none;fill-rule:evenodd;stroke-width:0.264583"
         id="rect2389"
         width="5.2916665"
         height="5.2916665"
         x="113.77083"
         y="174.625" />
      <circle
         style="fill:none;fill-opacity:0.753036;stroke:#000000;stroke-width:0.264999;stroke-linejoin:round"
         id="circle2391"
         cx="116.41667"
         cy="174.6918"
         r="2.6458333" />
      <text
         xml:space="preserve"
         style="font-size:2.11667px;line-height:1.25;font-family:'CMU Serif';-inkscape-font-specification:'CMU Serif, Normal';text-align:center;text-anchor:middle;stroke-width:0.264583"
         x="116.4296"
         y="179.98349"
         id="text2395"><tspan
           sodipodi:role="line"
           id="tspan2393"
           x="116.4296"
           y="179.98349"
           style="stroke-width:0.264583">on; 0</tspan></text>
      <path
         style="fill:#ffffbf;fill-opacity:0.923077;stroke:#000000;stroke-width:0.0473215;stroke-linejoin:round"
         d="m 115.84511,177.11287 c -0.87149,-0.21117 -1.60564,-0.92936 -1.83836,-1.79837 -0.0956,-0.35712 -0.0818,-0.99683 0.0294,-1.35679 0.24442,-0.79133 0.93914,-1.4521 1.75502,-1.66925 0.33025,-0.0879 0.89573,-0.087 1.23738,0.002 1.22941,0.32022 2.03875,1.55894 1.82942,2.79999 -0.23505,1.39355 -1.6602,2.35019 -3.01288,2.02242 z"
         id="path2397" />
    </g>
    <g
       id="g2409"
       transform="matrix(1.2222226,0,0,1.2222226,-7.2129917,0.5699343)">
      <g
         transform="translate(-52.240005,9.07375)"
         id="g2407">
        <circle
           cx="157.24001"
           cy="165.60001"
           r="2.6458001"
           fill="none"
           stroke="#000000"
           stroke-linejoin="round"
           stroke-width="0.265"
           id="circle2401" />
        <text
           x="157.29443"
           y="170.89636"
           font-family="'CMU Serif'"
           font-size="2.1167px"
           stroke-width="0.26458"
           text-align="center"
           text-anchor="middle"
           style="line-height:1.25"
           xml:space="preserve"
           id="text2405"><tspan
             x="157.29443"
             y="170.89636"
             stroke-width="0.26458"
             id="tspan2403">off; 1</tspan></text>
      </g>
    </g>
    <g
       id="g2421"
       transform="matrix(1.2222226,0,0,1.2222226,-43.80327,12.200187)">
      <rect
         style="fill:none;fill-rule:evenodd;stroke-width:0.264583"
         id="rect2411"
         width="5.2916665"
         height="5.2916665"
         x="113.77083"
         y="174.625" />
      <circle
         style="fill:none;fill-opacity:0.753036;stroke:#000000;stroke-width:0.264999;stroke-linejoin:round"
         id="circle2413"
         cx="116.41667"
         cy="174.6918"
         r="2.6458333" />
      <text
         xml:space="preserve"
         style="font-size:2.11667px;line-height:1.25;font-family:'CMU Serif';-inkscape-font-specification:'CMU Serif, Normal';text-align:center;text-anchor:middle;stroke-width:0.264583"
         x="116.4296"
         y="179.98349"
         id="text2417"><tspan
           sodipodi:role="line"
           id="tspan2415"
           x="116.4296"
           y="179.98349"
           style="stroke-width:0.264583">on; 0</tspan></text>
      <path
         style="fill:#ffffbf;fill-opacity:0.923077;stroke:#000000;stroke-width:0.0473215;stroke-linejoin:round"
         d="m 115.84511,177.11287 c -0.87149,-0.21117 -1.60564,-0.92936 -1.83836,-1.79837 -0.0956,-0.35712 -0.0818,-0.99683 0.0294,-1.35679 0.24442,-0.79133 0.93914,-1.4521 1.75502,-1.66925 0.33025,-0.0879 0.89573,-0.087 1.23738,0.002 1.22941,0.32022 2.03875,1.55894 1.82942,2.79999 -0.23505,1.39355 -1.6602,2.35019 -3.01288,2.02242 z"
         id="path2419" />
    </g>
    <g
       id="g2433"
       transform="matrix(1.2222226,0,0,1.2222226,-32.484979,11.869045)">
      <rect
         style="fill:none;fill-rule:evenodd;stroke-width:0.264583"
         id="rect2423"
         width="5.2916665"
         height="5.2916665"
         x="113.77083"
         y="174.625" />
      <circle
         style="fill:none;fill-opacity:0.753036;stroke:#000000;stroke-width:0.264999;stroke-linejoin:round"
         id="circle2425"
         cx="116.41667"
         cy="174.6918"
         r="2.6458333" />
      <text
         xml:space="preserve"
         style="font-size:2.11667px;line-height:1.25;font-family:'CMU Serif';-inkscape-font-specification:'CMU Serif, Normal';text-align:center;text-anchor:middle;stroke-width:0.264583"
         x="116.4296"
         y="179.98349"
         id="text2429"><tspan
           sodipodi:role="line"
           id="tspan2427"
           x="116.4296"
           y="179.98349"
           style="stroke-width:0.264583">on; 0</tspan></text>
      <path
         style="fill:#ffffbf;fill-opacity:0.923077;stroke:#000000;stroke-width:0.0473215;stroke-linejoin:round"
         d="m 115.84511,177.11287 c -0.87149,-0.21117 -1.60564,-0.92936 -1.83836,-1.79837 -0.0956,-0.35712 -0.0818,-0.99683 0.0294,-1.35679 0.24442,-0.79133 0.93914,-1.4521 1.75502,-1.66925 0.33025,-0.0879 0.89573,-0.087 1.23738,0.002 1.22941,0.32022 2.03875,1.55894 1.82942,2.79999 -0.23505,1.39355 -1.6602,2.35019 -3.01288,2.02242 z"
         id="path2431" />
    </g>
    <g
       id="g2461"
       transform="matrix(1.2222226,0,0,1.2222226,-21.166698,11.869045)">
      <rect
         style="fill:none;fill-rule:evenodd;stroke-width:0.264583"
         id="rect2451"
         width="5.2916665"
         height="5.2916665"
         x="113.77083"
         y="174.625" />
      <circle
         style="fill:none;fill-opacity:0.753036;stroke:#000000;stroke-width:0.264999;stroke-linejoin:round"
         id="circle2453"
         cx="116.41667"
         cy="174.6918"
         r="2.6458333" />
      <text
         xml:space="preserve"
         style="font-size:2.11667px;line-height:1.25;font-family:'CMU Serif';-inkscape-font-specification:'CMU Serif, Normal';text-align:center;text-anchor:middle;stroke-width:0.264583"
         x="116.4296"
         y="179.98349"
         id="text2457"><tspan
           sodipodi:role="line"
           id="tspan2455"
           x="116.4296"
           y="179.98349"
           style="stroke-width:0.264583">on; 0</tspan></text>
      <path
         style="fill:#ffffbf;fill-opacity:0.923077;stroke:#000000;stroke-width:0.0473215;stroke-linejoin:round"
         d="m 115.84511,177.11287 c -0.87149,-0.21117 -1.60564,-0.92936 -1.83836,-1.79837 -0.0956,-0.35712 -0.0818,-0.99683 0.0294,-1.35679 0.24442,-0.79133 0.93914,-1.4521 1.75502,-1.66925 0.33025,-0.0879 0.89573,-0.087 1.23738,0.002 1.22941,0.32022 2.03875,1.55894 1.82942,2.79999 -0.23505,1.39355 -1.6602,2.35019 -3.01288,2.02242 z"
         id="path2459" />
    </g>
  </g>
</svg>
