<?xml version="1.0" encoding="UTF-8"?>
<svg width="74.348mm" height="17.903mm" version="1.1" viewBox="0 0 74.348 17.903" xmlns="http://www.w3.org/2000/svg">
 <defs>
  <marker id="marker1621" overflow="visible" orient="auto">
   <path transform="matrix(.8 0 0 .8 -4.8 0)" d="m5.77 0-8.65 5v-10z" fill="#fff" fill-rule="evenodd" stroke="#00a280" stroke-width="1pt"/>
  </marker>
  <marker id="marker1611" overflow="visible" orient="auto">
   <path transform="matrix(.8 0 0 .8 -4.8 0)" d="m5.77 0-8.65 5v-10z" fill="#fff" fill-rule="evenodd" stroke="#00a280" stroke-width="1pt"/>
  </marker>
  <marker id="marker1323" overflow="visible" orient="auto">
   <path transform="matrix(.8 0 0 .8 -4.8 0)" d="m5.77 0-8.65 5v-10z" fill="#fff" fill-rule="evenodd" stroke="#00a280" stroke-width="1pt"/>
  </marker>
  <marker id="marker1271" overflow="visible" orient="auto">
   <path transform="matrix(.8 0 0 .8 -4.8 0)" d="m5.77 0-8.65 5v-10z" fill="#fff" fill-rule="evenodd" stroke="#00a280" stroke-width="1pt"/>
  </marker>
  <marker id="marker1225" overflow="visible" orient="auto">
   <path transform="matrix(.8 0 0 .8 -4.8 0)" d="m5.77 0-8.65 5v-10z" fill="#fff" fill-rule="evenodd" stroke="#00a280" stroke-width="1pt"/>
  </marker>
  <marker id="EmptyTriangleOutL" overflow="visible" orient="auto">
   <path transform="matrix(.8 0 0 .8 -4.8 0)" d="m5.77 0-8.65 5v-10z" fill="#fff" fill-rule="evenodd" stroke="#00a280" stroke-width="1pt"/>
  </marker>
 </defs>
 <g transform="translate(-31.618 -88.063)">
  <g fill="none">
   <path d="m95.25 95.25h10.583v10.583h-10.583zm-10.583 0h10.583v10.583h-10.583zm-10.583 0h10.583v10.583h-10.583zm-10.583 0h10.583v10.583h-10.583zm-10.583 0h10.583v10.583h-10.583zm-10.583 0h10.583v10.583h-10.583zm-10.583 0h10.583v10.583h-10.583z" stroke="#000" stroke-width=".26458"/>
   <g stroke="#00a280">
    <path d="m37.042 95.25c5.2917-15.875 10.583 0 10.583 0" marker-end="url(#EmptyTriangleOutL)" stroke-width=".265"/>
    <g stroke-width=".26458px">
     <path d="m47.625 95.25c5.2917-15.875 10.583 0 10.583 0" marker-end="url(#marker1225)"/>
     <path d="m58.208 95.25c5.2917-15.875 10.583 0 10.583 0" marker-end="url(#marker1271)"/>
     <path d="m68.792 95.25c5.2917-15.875 10.583 0 10.583 0" marker-end="url(#marker1323)"/>
     <path d="m79.375 95.25c5.2917-15.875 10.583 0 10.583 0" marker-end="url(#marker1611)"/>
     <path d="m89.958 95.25c5.2917-15.875 10.583 0 10.583 0" marker-end="url(#marker1621)"/>
    </g>
   </g>
  </g>
 </g>
</svg>
