<?xml version="1.0" encoding="UTF-8" standalone="no"?><!DOCTYPE svg PUBLIC "-//W3C//DTD SVG 1.1//EN" "http://www.w3.org/Graphics/SVG/1.1/DTD/svg11.dtd"><svg width="100%" height="100%" viewBox="0 0 941 785" version="1.1" xmlns="http://www.w3.org/2000/svg" xmlns:xlink="http://www.w3.org/1999/xlink" xml:space="preserve" xmlns:serif="http://www.serif.com/" style="fill-rule:evenodd;clip-rule:evenodd;"><g><g><rect x="95.315" y="1.559" width="93.75" height="93.75" style="fill:#faa;stroke:#000;stroke-width:3.12px;"/><rect x="189.059" y="1.559" width="93.75" height="93.75" style="fill:#faa;stroke:#000;stroke-width:3.12px;"/><rect x="282.815" y="1.559" width="93.75" height="93.75" style="fill:#faa;stroke:#000;stroke-width:3.12px;"/><rect x="376.524" y="1.559" width="93.75" height="93.75" style="fill:#faa;stroke:#000;stroke-width:3.12px;"/></g><g><rect x="470.303" y="1.559" width="93.75" height="93.75" style="fill:#afdde9;stroke:#000;stroke-width:3.12px;"/><rect x="564.083" y="1.559" width="93.75" height="93.75" style="fill:#afdde9;stroke:#000;stroke-width:3.12px;"/><rect x="657.862" y="1.559" width="93.75" height="93.75" style="fill:#afdde9;stroke:#000;stroke-width:3.12px;"/><rect x="751.524" y="1.559" width="93.75" height="93.75" style="fill:#afdde9;stroke:#000;stroke-width:3.12px;"/></g><g><g><text x="127.012px" y="64.533px" style="font-family:'CMUSerif-Roman', 'CMU Serif';font-weight:500;font-size:50px;">3</text></g><g><text x="220.388px" y="64.533px" style="font-family:'CMUSerif-Roman', 'CMU Serif';font-weight:500;font-size:50px;">5</text></g><g><text x="313.764px" y="64.533px" style="font-family:'CMUSerif-Roman', 'CMU Serif';font-weight:500;font-size:50px;">6</text></g><g><text x="407.14px" y="64.533px" style="font-family:'CMUSerif-Roman', 'CMU Serif';font-weight:500;font-size:50px;">8</text></g><g><text x="500.516px" y="65.082px" style="font-family:'CMUSerif-Roman', 'CMU Serif';font-weight:500;font-size:50px;">1</text></g><g><text x="593.892px" y="65.082px" style="font-family:'CMUSerif-Roman', 'CMU Serif';font-weight:500;font-size:50px;">2</text></g><g><text x="687.268px" y="65.352px" style="font-family:'CMUSerif-Roman', 'CMU Serif';font-weight:500;font-size:50px;">4</text></g><g><text x="780.644px" y="64.777px" style="font-family:'CMUSerif-Roman', 'CMU Serif';font-weight:500;font-size:50px;">7</text></g></g><g><rect x="1.559" y="157.807" width="93.75" height="93.75" style="fill:#faa;stroke:#000;stroke-width:3.12px;"/><rect x="95.315" y="157.807" width="93.75" height="93.75" style="fill:#faa;stroke:#000;stroke-width:3.12px;"/><rect x="189.059" y="157.807" width="93.75" height="93.75" style="fill:#faa;stroke:#000;stroke-width:3.12px;"/><rect x="282.815" y="157.807" width="93.75" height="93.75" style="fill:#faa;stroke:#000;stroke-width:3.12px;"/></g><g><g><text x="33.262px" y="220.783px" style="font-family:'CMUSerif-Roman', 'CMU Serif';font-weight:500;font-size:50px;fill:#a00;">3</text></g><g><text x="126.638px" y="220.783px" style="font-family:'CMUSerif-Roman', 'CMU Serif';font-weight:500;font-size:50px;fill:#a00;">5</text></g><g><text x="220.014px" y="220.783px" style="font-family:'CMUSerif-Roman', 'CMU Serif';font-weight:500;font-size:50px;fill:#a00;">6</text></g><g><text x="313.39px" y="220.783px" style="font-family:'CMUSerif-Roman', 'CMU Serif';font-weight:500;font-size:50px;fill:#a00;">8</text></g></g><g><rect x="564.083" y="157.807" width="93.75" height="93.75" style="fill:#afdde9;stroke:#000;stroke-width:3.12px;"/><rect x="657.862" y="157.807" width="93.75" height="93.75" style="fill:#afdde9;stroke:#000;stroke-width:3.12px;"/><rect x="751.524" y="157.807" width="93.75" height="93.75" style="fill:#afdde9;stroke:#000;stroke-width:3.12px;"/><rect x="845.303" y="157.807" width="93.75" height="93.75" style="fill:#afdde9;stroke:#000;stroke-width:3.12px;"/></g><g><g><text x="594.266px" y="221.332px" style="font-family:'CMUSerif-Roman', 'CMU Serif';font-weight:500;font-size:50px;fill:#005d5d;">1</text></g><g><text x="687.642px" y="221.332px" style="font-family:'CMUSerif-Roman', 'CMU Serif';font-weight:500;font-size:50px;fill:#005d5d;">2</text></g><g><text x="781.017px" y="221.601px" style="font-family:'CMUSerif-Roman', 'CMU Serif';font-weight:500;font-size:50px;fill:#005d5d;">4</text></g><g><text x="874.393px" y="221.027px" style="font-family:'CMUSerif-Roman', 'CMU Serif';font-weight:500;font-size:50px;fill:#005d5d;">7</text></g></g><g><rect x="110.941" y="689.067" width="93.75" height="93.75" style="fill:#d4fda6;stroke:#000;stroke-width:3.12px;"/><rect x="204.685" y="689.067" width="93.75" height="93.75" style="fill:#d4fda6;stroke:#000;stroke-width:3.12px;"/><rect x="298.441" y="689.067" width="93.75" height="93.75" style="fill:#d4fda6;stroke:#000;stroke-width:3.12px;"/><rect x="392.232" y="689.067" width="93.75" height="93.75" style="fill:#d4fda6;stroke:#000;stroke-width:3.12px;"/><rect x="485.894" y="689.067" width="93.75" height="93.75" style="fill:#d4fda6;stroke:#000;stroke-width:3.12px;"/><rect x="579.673" y="689.067" width="93.75" height="93.75" style="fill:#d4fda6;stroke:#000;stroke-width:3.12px;"/><rect x="673.453" y="689.067" width="93.75" height="93.75" style="fill:#d4fda6;stroke:#000;stroke-width:3.12px;"/><rect x="767.232" y="689.067" width="93.75" height="93.75" style="fill:#d4fda6;stroke:#000;stroke-width:3.12px;"/></g><g><rect x="110.941" y="607.807" width="93.75" height="37.547" style="fill:#fff2bd;stroke:#000;stroke-width:0.94px;"/><text x="121.123px" y="638.167px" style="font-family:'CMUSerif-Roman', 'CMU Serif';font-weight:500;font-size:41.667px;">3&gt;1</text><path d="M48.437,251.587l103.899,356.196" style="fill:none;fill-rule:nonzero;stroke:#f55;stroke-width:3.12px;"/><path d="M610.972,251.587l-430.441,356.196" style="fill:none;stroke:#008080;stroke-width:3.12px;"/></g><g><text x="145.313px" y="752.582px" style="font-family:'CMUSerif-Roman', 'CMU Serif';font-weight:500;font-size:50px;fill:#008080;stroke:#008080;stroke-width:3.12px;">1</text></g><g><rect x="204.685" y="607.807" width="93.75" height="37.547" style="fill:#fff2bd;stroke:#000;stroke-width:0.94px;"/><rect x="298.441" y="607.807" width="93.75" height="37.547" style="fill:#fff2bd;stroke:#000;stroke-width:0.94px;"/><rect x="392.232" y="607.807" width="93.75" height="37.547" style="fill:#fff2bd;stroke:#000;stroke-width:0.94px;"/></g><rect x="485.894" y="607.807" width="93.75" height="37.547" style="fill:#fff2bd;stroke:#000;stroke-width:0.94px;"/><rect x="579.673" y="607.807" width="93.75" height="37.547" style="fill:#fff2bd;stroke:#000;stroke-width:0.94px;"/><rect x="673.453" y="607.807" width="93.75" height="37.547" style="fill:#fff2bd;stroke:#000;stroke-width:0.94px;"/><g><g><text x="238.741px" y="752.582px" style="font-family:'CMUSerif-Roman', 'CMU Serif';font-weight:500;font-size:50px;fill:#008080;stroke:#008080;stroke-width:3.12px;">2</text></g><g><text x="332.169px" y="752.033px" style="font-family:'CMUSerif-Roman', 'CMU Serif';font-weight:500;font-size:50px;fill:#f55;stroke:#f55;stroke-width:3.12px;">3</text></g><g><text x="425.596px" y="752.852px" style="font-family:'CMUSerif-Roman', 'CMU Serif';font-weight:500;font-size:50px;fill:#008080;stroke:#008080;stroke-width:3.12px;">4</text></g><g><text x="519.024px" y="752.033px" style="font-family:'CMUSerif-Roman', 'CMU Serif';font-weight:500;font-size:50px;fill:#f55;stroke:#f55;stroke-width:3.12px;">5</text></g><g><text x="612.452px" y="752.033px" style="font-family:'CMUSerif-Roman', 'CMU Serif';font-weight:500;font-size:50px;fill:#f55;stroke:#f55;stroke-width:3.12px;">6</text></g><g><text x="705.88px" y="752.277px" style="font-family:'CMUSerif-Roman', 'CMU Serif';font-weight:500;font-size:50px;fill:#008080;stroke:#008080;stroke-width:3.12px;">7</text></g><g><text x="799.307px" y="752.033px" style="font-family:'CMUSerif-Roman', 'CMU Serif';font-weight:500;font-size:50px;fill:#f55;stroke:#f55;stroke-width:3.12px;">8</text></g></g><g><g><path d="M157.819,645.248l-0,43.75" style="fill:none;fill-rule:nonzero;stroke:#000;stroke-width:3.12px;"/><path d="M251.563,645.366l-0,43.702" style="fill:none;fill-rule:nonzero;stroke:#000;stroke-width:3.12px;"/><path d="M345.343,645.366l-0,43.702" style="fill:none;fill-rule:nonzero;stroke:#000;stroke-width:3.12px;"/><path d="M439.004,645.366l-0,43.702" style="fill:none;fill-rule:nonzero;stroke:#000;stroke-width:3.12px;"/><path d="M532.783,645.366l0,43.702" style="fill:none;fill-rule:nonzero;stroke:#000;stroke-width:3.12px;"/><path d="M626.563,645.366l-0,43.702" style="fill:none;fill-rule:nonzero;stroke:#000;stroke-width:3.12px;"/><path d="M720.343,645.366l-0,43.702" style="fill:none;fill-rule:nonzero;stroke:#000;stroke-width:3.12px;"/></g><path d="M48.437,251.587l192.957,356.256" style="fill:none;fill-rule:nonzero;stroke:#f55;stroke-width:3.12px;"/></g><g><path d="M704.634,251.587l-430.441,356.256" style="fill:none;stroke:#008080;stroke-width:3.12px;"/><path d="M48.437,251.587l282.012,356.256" style="fill:none;fill-rule:nonzero;stroke:#f55;stroke-width:3.12px;"/><path d="M798.413,251.587l-430.441,356.256" style="fill:none;stroke:#008080;stroke-width:3.12px;"/><path d="M142.193,251.587l282.012,356.256" style="fill:none;fill-rule:nonzero;stroke:#f55;stroke-width:3.12px;"/><path d="M798.413,251.587l-341.385,356.256" style="fill:none;stroke:#008080;stroke-width:3.12px;"/><path d="M142.193,251.587l371.067,356.256" style="fill:none;fill-rule:nonzero;stroke:#f55;stroke-width:3.12px;"/><path d="M892.193,251.587l-341.386,356.256" style="fill:none;stroke:#008080;stroke-width:3.12px;"/><path d="M235.937,251.587l371.067,356.256" style="fill:none;fill-rule:nonzero;stroke:#f55;stroke-width:3.12px;"/><path d="M892.193,251.587l-252.331,356.256" style="fill:none;stroke:#008080;stroke-width:3.12px;"/><path d="M329.634,251.587l371.067,356.256" style="fill:none;fill-rule:nonzero;stroke:#f55;stroke-width:3.12px;"/><path d="M892.193,251.587l-163.276,356.256" style="fill:none;stroke:#008080;stroke-width:3.12px;"/></g><text x="214.704px" y="637.628px" style="font-family:'CMUSerif-Roman', 'CMU Serif';font-weight:500;font-size:41.667px;">3&gt;2</text><text x="309.122px" y="639.322px" style="font-family:'CMUSerif-Roman', 'CMU Serif';font-weight:500;font-size:41.667px;">3&lt;4</text><text x="402.631px" y="637.451px" style="font-family:'CMUSerif-Roman', 'CMU Serif';font-weight:500;font-size:41.667px;">5&gt;4</text><text x="496.124px" y="637.451px" style="font-family:'CMUSerif-Roman', 'CMU Serif';font-weight:500;font-size:41.667px;">5&lt;7</text><text x="590.09px" y="637.857px" style="font-family:'CMUSerif-Roman', 'CMU Serif';font-weight:500;font-size:41.667px;">6&lt;7</text><text x="684.196px" y="638.248px" style="font-family:'CMUSerif-Roman', 'CMU Serif';font-weight:500;font-size:41.667px;">8&gt;7</text></g></svg>