<?xml version="1.0" encoding="UTF-8" standalone="no"?>
<!-- Created with Inkscape (http://www.inkscape.org/) -->

<svg
   width="29.260044mm"
   height="21.947664mm"
   viewBox="0 0 29.260044 21.947664"
   version="1.1"
   id="svg1566"
   sodipodi:docname="multiple_black_boxes.svg"
   inkscape:version="1.1 (c4e8f9e, 2021-05-24)"
   xmlns:inkscape="http://www.inkscape.org/namespaces/inkscape"
   xmlns:sodipodi="http://sodipodi.sourceforge.net/DTD/sodipodi-0.dtd"
   xmlns="http://www.w3.org/2000/svg"
   xmlns:svg="http://www.w3.org/2000/svg"
   xmlns:ns2="http://www.iki.fi/pav/software/textext/">
  <sodipodi:namedview
     id="namedview1568"
     pagecolor="#ffffff"
     bordercolor="#666666"
     borderopacity="1.0"
     inkscape:pageshadow="2"
     inkscape:pageopacity="0.0"
     inkscape:pagecheckerboard="0"
     inkscape:document-units="mm"
     showgrid="false"
     inkscape:zoom="3.1496409"
     inkscape:cx="17.144812"
     inkscape:cy="46.195743"
     inkscape:window-width="1312"
     inkscape:window-height="847"
     inkscape:window-x="2319"
     inkscape:window-y="27"
     inkscape:window-maximized="0"
     inkscape:current-layer="layer1"
     inkscape:snap-text-baseline="false">
    <inkscape:grid
       type="xygrid"
       id="grid1639"
       originx="-73.993603"
       originy="-93.527635" />
  </sodipodi:namedview>
  <defs
     id="defs1563">
    <marker
       style="overflow:visible"
       id="TriangleOutM"
       refX="0"
       refY="0"
       orient="auto"
       inkscape:stockid="TriangleOutM"
       inkscape:isstock="true">
      <path
         transform="scale(0.4)"
         style="fill:context-stroke;fill-rule:evenodd;stroke:context-stroke;stroke-width:1pt"
         d="M 5.77,0 -2.88,5 V -5 Z"
         id="path1344" />
    </marker>
  </defs>
  <g
     inkscape:label="Layer 1"
     inkscape:groupmode="layer"
     id="layer1"
     transform="translate(-73.993602,-93.527639)">
    <g
       id="g5444">
      <g
         id="g3782"
         transform="translate(15.875003,-0.69266764)">
        <rect
           style="font-variation-settings:normal;opacity:1;vector-effect:none;fill:none;fill-opacity:1;fill-rule:evenodd;stroke:#000000;stroke-width:0.137801;stroke-linecap:butt;stroke-linejoin:miter;stroke-miterlimit:4;stroke-dasharray:none;stroke-dashoffset:0;stroke-opacity:1;stop-color:#000000;stop-opacity:1"
           id="rect1663"
           width="8.2680464"
           height="8.2680464"
           x="68.461121"
           y="94.289207"
           ry="1.3780077" />
        <g
           transform="matrix(0.352778,0,0,0.352778,70.255289,96.664941)"
           ns2:version="1.3.1"
           ns2:texconverter="pdflatex"
           ns2:pdfconverter="inkscape"
           ns2:text="$\\sqrt x$\n"
           ns2:preamble="/Users/ketiboldiais/Library/Application Support/org.inkscape.Inkscape/config/inkscape/extensions/circuitSymbols/circuitSymbolsPreamble.tex"
           ns2:scale="1.0"
           ns2:alignment="middle center"
           ns2:jacobian_sqrt="0.352778"
           id="g1885">
          <defs
             id="id-1078dc69-6170-4c8c-aed9-bbb8b3a8b3cf">
            <g
               id="id-1a6f1bff-a06f-440c-9791-9ea063c1eee2">
              <symbol
                 overflow="visible"
                 id="id-80313a1c-f8b7-440d-842e-874f3c19a852">
                <path
                   style="stroke:none;stroke-width:0"
                   d=""
                   id="id-500a3294-dfdc-442d-b935-f21dde16aeb6" />
              </symbol>
              <symbol
                 overflow="visible"
                 id="id-a7c7d19f-ebf3-4a78-86c3-6e9ac0c40e82">
                <path
                   style="stroke:none;stroke-width:0"
                   d="m 3.875,8.515625 -1.75,-3.875 C 2.046875,4.484375 2,4.484375 1.96875,4.484375 c 0,0 -0.0625,0 -0.171875,0.078125 l -0.9375,0.71875 c -0.125,0.109375 -0.125,0.125 -0.125,0.15625 0,0.0625 0.015625,0.109375 0.09375,0.109375 0.0625,0 0.234375,-0.140625 0.34375,-0.21875 C 1.21875,5.28125 1.375,5.171875 1.484375,5.09375 l 1.96875,4.3125 C 3.515625,9.5625 3.5625,9.5625 3.65625,9.5625 c 0.15625,0 0.1875,-0.046875 0.25,-0.1875 L 8.4375,0 C 8.5,-0.140625 8.5,-0.171875 8.5,-0.203125 8.5,-0.296875 8.421875,-0.40625 8.296875,-0.40625 c -0.078125,0 -0.140625,0.0625 -0.21875,0.21875 z m 0,0"
                   id="id-fe58ae08-ebb7-421f-8994-0076a3031882" />
              </symbol>
              <symbol
                 overflow="visible"
                 id="id-ed12560a-dedd-447a-aee0-c005011d54ea">
                <path
                   style="stroke:none;stroke-width:0"
                   d=""
                   id="id-fda0d01b-1050-4ec8-8065-7d0e1a4ed664" />
              </symbol>
              <symbol
                 overflow="visible"
                 id="id-442498ad-898d-453f-bee9-52a688c440f9">
                <path
                   style="stroke:none;stroke-width:0"
                   d="M 3.328125,-3.015625 C 3.390625,-3.265625 3.625,-4.1875 4.3125,-4.1875 c 0.046875,0 0.296875,0 0.5,0.125 C 4.53125,-4 4.34375,-3.765625 4.34375,-3.515625 c 0,0.15625 0.109375,0.34375 0.375,0.34375 0.21875,0 0.53125,-0.171875 0.53125,-0.578125 0,-0.515625 -0.578125,-0.65625 -0.921875,-0.65625 -0.578125,0 -0.921875,0.53125 -1.046875,0.75 -0.25,-0.65625 -0.78125,-0.75 -1.078125,-0.75 -1.03125,0 -1.609375,1.28125 -1.609375,1.53125 0,0.109375 0.109375,0.109375 0.125,0.109375 0.078125,0 0.109375,-0.03125 0.125,-0.109375 0.34375,-1.0625 1,-1.3125 1.34375,-1.3125 0.1875,0 0.53125,0.09375 0.53125,0.671875 0,0.3125 -0.171875,0.96875 -0.53125,2.375 -0.15625,0.609375 -0.515625,1.03125 -0.953125,1.03125 -0.0625,0 -0.28125,0 -0.5,-0.125 0.25,-0.0625 0.46875,-0.265625 0.46875,-0.546875 0,-0.265625 -0.21875,-0.34375 -0.359375,-0.34375 -0.3125,0 -0.546875,0.25 -0.546875,0.578125 0,0.453125 0.484375,0.65625 0.921875,0.65625 0.671875,0 1.03125,-0.703125 1.046875,-0.75 0.125,0.359375 0.484375,0.75 1.078125,0.75 1.03125,0 1.59375,-1.28125 1.59375,-1.53125 0,-0.109375 -0.078125,-0.109375 -0.109375,-0.109375 -0.09375,0 -0.109375,0.046875 -0.140625,0.109375 -0.328125,1.078125 -1,1.3125 -1.3125,1.3125 -0.390625,0 -0.546875,-0.3125 -0.546875,-0.65625 0,-0.21875 0.046875,-0.4375 0.15625,-0.875 z m 0,0"
                   id="id-c3ee0243-c72e-437d-81f6-d610e1cda30a" />
              </symbol>
            </g>
          </defs>
          <g
             id="id-2e3437c6-e454-4ac7-91a6-4c31a78694b1"
             transform="translate(-149.446,-127.183)">
            <g
               style="fill:#000000;fill-opacity:1"
               id="id-1c9e75c2-48f0-43a8-bcc1-91d81bf3ce32">
              <g
                 transform="translate(148.712,127.589)"
                 id="g1876">
                <path
                   style="stroke:none;stroke-width:0"
                   d="m 3.875,8.515625 -1.75,-3.875 C 2.046875,4.484375 2,4.484375 1.96875,4.484375 c 0,0 -0.0625,0 -0.171875,0.078125 l -0.9375,0.71875 c -0.125,0.109375 -0.125,0.125 -0.125,0.15625 0,0.0625 0.015625,0.109375 0.09375,0.109375 0.0625,0 0.234375,-0.140625 0.34375,-0.21875 C 1.21875,5.28125 1.375,5.171875 1.484375,5.09375 l 1.96875,4.3125 C 3.515625,9.5625 3.5625,9.5625 3.65625,9.5625 c 0.15625,0 0.1875,-0.046875 0.25,-0.1875 L 8.4375,0 C 8.5,-0.140625 8.5,-0.171875 8.5,-0.203125 8.5,-0.296875 8.421875,-0.40625 8.296875,-0.40625 c -0.078125,0 -0.140625,0.0625 -0.21875,0.21875 z m 0,0"
                   id="id-fc15b578-8493-4e90-836e-a6a6e22bcfad" />
              </g>
            </g>
            <path
               style="fill:none;stroke:#000000;stroke-width:0.398;stroke-linecap:butt;stroke-linejoin:miter;stroke-miterlimit:10;stroke-opacity:1"
               d="M 6.25e-4,-6.25e-4 H 5.695938"
               transform="matrix(1,0,0,-1,157.015,127.39)"
               id="id-533d9734-7b5f-4584-a73e-af1a6ccd6c44" />
            <g
               style="fill:#000000;fill-opacity:1"
               id="id-0d0f8df9-3b5c-421e-8fdb-4c9790ed7a76">
              <g
                 transform="translate(157.015,134.765)"
                 id="g1881">
                <path
                   style="stroke:none;stroke-width:0"
                   d="M 3.328125,-3.015625 C 3.390625,-3.265625 3.625,-4.1875 4.3125,-4.1875 c 0.046875,0 0.296875,0 0.5,0.125 C 4.53125,-4 4.34375,-3.765625 4.34375,-3.515625 c 0,0.15625 0.109375,0.34375 0.375,0.34375 0.21875,0 0.53125,-0.171875 0.53125,-0.578125 0,-0.515625 -0.578125,-0.65625 -0.921875,-0.65625 -0.578125,0 -0.921875,0.53125 -1.046875,0.75 -0.25,-0.65625 -0.78125,-0.75 -1.078125,-0.75 -1.03125,0 -1.609375,1.28125 -1.609375,1.53125 0,0.109375 0.109375,0.109375 0.125,0.109375 0.078125,0 0.109375,-0.03125 0.125,-0.109375 0.34375,-1.0625 1,-1.3125 1.34375,-1.3125 0.1875,0 0.53125,0.09375 0.53125,0.671875 0,0.3125 -0.171875,0.96875 -0.53125,2.375 -0.15625,0.609375 -0.515625,1.03125 -0.953125,1.03125 -0.0625,0 -0.28125,0 -0.5,-0.125 0.25,-0.0625 0.46875,-0.265625 0.46875,-0.546875 0,-0.265625 -0.21875,-0.34375 -0.359375,-0.34375 -0.3125,0 -0.546875,0.25 -0.546875,0.578125 0,0.453125 0.484375,0.65625 0.921875,0.65625 0.671875,0 1.03125,-0.703125 1.046875,-0.75 0.125,0.359375 0.484375,0.75 1.078125,0.75 1.03125,0 1.59375,-1.28125 1.59375,-1.53125 0,-0.109375 -0.078125,-0.109375 -0.109375,-0.109375 -0.09375,0 -0.109375,0.046875 -0.140625,0.109375 -0.328125,1.078125 -1,1.3125 -1.3125,1.3125 -0.390625,0 -0.546875,-0.3125 -0.546875,-0.65625 0,-0.21875 0.046875,-0.4375 0.15625,-0.875 z m 0,0"
                   id="id-6cb2a044-9883-44b8-9dde-cfc3a8d970cf" />
              </g>
            </g>
          </g>
        </g>
      </g>
      <g
         id="g3810"
         transform="translate(-2.6458206,-9.2604167)">
        <g
           id="g3678">
          <rect
             style="font-variation-settings:normal;opacity:1;vector-effect:none;fill:none;fill-opacity:1;fill-rule:evenodd;stroke:#000000;stroke-width:0.132291;stroke-linecap:butt;stroke-linejoin:miter;stroke-miterlimit:4;stroke-dasharray:none;stroke-dashoffset:0;stroke-opacity:1;stop-color:#000000;stop-opacity:1"
             id="rect1769"
             width="5.2916651"
             height="5.2916651"
             x="100.54166"
             y="111.125"
             ry="1.3229163" />
          <text
             xml:space="preserve"
             style="font-style:normal;font-variant:normal;font-weight:500;font-stretch:normal;font-size:3.72935px;line-height:1.25;font-family:'Fira Code';-inkscape-font-specification:'Fira Code, Medium';font-variant-ligatures:normal;font-variant-caps:normal;font-variant-numeric:normal;font-variant-east-asian:normal;text-align:center;letter-spacing:0px;word-spacing:0px;text-anchor:middle;stroke-width:0.264583"
             x="103.18721"
             y="114.96614"
             id="text2267"><tspan
               sodipodi:role="line"
               id="tspan2265"
               style="font-style:normal;font-variant:normal;font-weight:500;font-stretch:normal;font-size:3.72935px;font-family:'Fira Code';-inkscape-font-specification:'Fira Code, Medium';font-variant-ligatures:normal;font-variant-caps:normal;font-variant-numeric:normal;font-variant-east-asian:normal;stroke-width:0.264583"
               x="103.18721"
               y="114.96614">+</tspan></text>
        </g>
      </g>
      <g
         id="g3804"
         transform="translate(6.2455884,2.2515234)">
        <g
           transform="matrix(0.352778,0,0,0.352778,79.868479,107.26256)"
           ns2:version="1.3.1"
           ns2:texconverter="pdflatex"
           ns2:pdfconverter="inkscape"
           ns2:text="$\\sqrt x$\n"
           ns2:preamble="/Users/ketiboldiais/Library/Application Support/org.inkscape.Inkscape/config/inkscape/extensions/circuitSymbols/circuitSymbolsPreamble.tex"
           ns2:scale="1.0"
           ns2:alignment="middle center"
           ns2:jacobian_sqrt="0.352778"
           id="g1963">
          <defs
             id="defs1945">
            <g
               id="g1943">
              <symbol
                 overflow="visible"
                 id="symbol1929">
                <path
                   style="stroke:none;stroke-width:0"
                   d=""
                   id="path1927" />
              </symbol>
              <symbol
                 overflow="visible"
                 id="symbol1933">
                <path
                   style="stroke:none;stroke-width:0"
                   d="m 3.875,8.515625 -1.75,-3.875 C 2.046875,4.484375 2,4.484375 1.96875,4.484375 c 0,0 -0.0625,0 -0.171875,0.078125 l -0.9375,0.71875 c -0.125,0.109375 -0.125,0.125 -0.125,0.15625 0,0.0625 0.015625,0.109375 0.09375,0.109375 0.0625,0 0.234375,-0.140625 0.34375,-0.21875 C 1.21875,5.28125 1.375,5.171875 1.484375,5.09375 l 1.96875,4.3125 C 3.515625,9.5625 3.5625,9.5625 3.65625,9.5625 c 0.15625,0 0.1875,-0.046875 0.25,-0.1875 L 8.4375,0 C 8.5,-0.140625 8.5,-0.171875 8.5,-0.203125 8.5,-0.296875 8.421875,-0.40625 8.296875,-0.40625 c -0.078125,0 -0.140625,0.0625 -0.21875,0.21875 z m 0,0"
                   id="path1931" />
              </symbol>
              <symbol
                 overflow="visible"
                 id="symbol1937">
                <path
                   style="stroke:none;stroke-width:0"
                   d=""
                   id="path1935" />
              </symbol>
              <symbol
                 overflow="visible"
                 id="symbol1941">
                <path
                   style="stroke:none;stroke-width:0"
                   d="M 3.328125,-3.015625 C 3.390625,-3.265625 3.625,-4.1875 4.3125,-4.1875 c 0.046875,0 0.296875,0 0.5,0.125 C 4.53125,-4 4.34375,-3.765625 4.34375,-3.515625 c 0,0.15625 0.109375,0.34375 0.375,0.34375 0.21875,0 0.53125,-0.171875 0.53125,-0.578125 0,-0.515625 -0.578125,-0.65625 -0.921875,-0.65625 -0.578125,0 -0.921875,0.53125 -1.046875,0.75 -0.25,-0.65625 -0.78125,-0.75 -1.078125,-0.75 -1.03125,0 -1.609375,1.28125 -1.609375,1.53125 0,0.109375 0.109375,0.109375 0.125,0.109375 0.078125,0 0.109375,-0.03125 0.125,-0.109375 0.34375,-1.0625 1,-1.3125 1.34375,-1.3125 0.1875,0 0.53125,0.09375 0.53125,0.671875 0,0.3125 -0.171875,0.96875 -0.53125,2.375 -0.15625,0.609375 -0.515625,1.03125 -0.953125,1.03125 -0.0625,0 -0.28125,0 -0.5,-0.125 0.25,-0.0625 0.46875,-0.265625 0.46875,-0.546875 0,-0.265625 -0.21875,-0.34375 -0.359375,-0.34375 -0.3125,0 -0.546875,0.25 -0.546875,0.578125 0,0.453125 0.484375,0.65625 0.921875,0.65625 0.671875,0 1.03125,-0.703125 1.046875,-0.75 0.125,0.359375 0.484375,0.75 1.078125,0.75 1.03125,0 1.59375,-1.28125 1.59375,-1.53125 0,-0.109375 -0.078125,-0.109375 -0.109375,-0.109375 -0.09375,0 -0.109375,0.046875 -0.140625,0.109375 -0.328125,1.078125 -1,1.3125 -1.3125,1.3125 -0.390625,0 -0.546875,-0.3125 -0.546875,-0.65625 0,-0.21875 0.046875,-0.4375 0.15625,-0.875 z m 0,0"
                   id="path1939" />
              </symbol>
            </g>
          </defs>
          <g
             id="g1961"
             transform="translate(-149.446,-127.183)">
            <g
               style="fill:#000000;fill-opacity:1"
               id="g1951">
              <g
                 transform="translate(148.712,127.589)"
                 id="g1949">
                <path
                   style="stroke:none;stroke-width:0"
                   d="m 3.875,8.515625 -1.75,-3.875 C 2.046875,4.484375 2,4.484375 1.96875,4.484375 c 0,0 -0.0625,0 -0.171875,0.078125 l -0.9375,0.71875 c -0.125,0.109375 -0.125,0.125 -0.125,0.15625 0,0.0625 0.015625,0.109375 0.09375,0.109375 0.0625,0 0.234375,-0.140625 0.34375,-0.21875 C 1.21875,5.28125 1.375,5.171875 1.484375,5.09375 l 1.96875,4.3125 C 3.515625,9.5625 3.5625,9.5625 3.65625,9.5625 c 0.15625,0 0.1875,-0.046875 0.25,-0.1875 L 8.4375,0 C 8.5,-0.140625 8.5,-0.171875 8.5,-0.203125 8.5,-0.296875 8.421875,-0.40625 8.296875,-0.40625 c -0.078125,0 -0.140625,0.0625 -0.21875,0.21875 z m 0,0"
                   id="path1947" />
              </g>
            </g>
            <path
               style="fill:none;stroke:#000000;stroke-width:0.398;stroke-linecap:butt;stroke-linejoin:miter;stroke-miterlimit:10;stroke-opacity:1"
               d="M 6.25e-4,-6.25e-4 H 5.695938"
               transform="matrix(1,0,0,-1,157.015,127.39)"
               id="path1953" />
            <g
               style="fill:#000000;fill-opacity:1"
               id="g1959">
              <g
                 transform="translate(157.015,134.765)"
                 id="g1957">
                <path
                   style="stroke:none;stroke-width:0"
                   d="M 3.328125,-3.015625 C 3.390625,-3.265625 3.625,-4.1875 4.3125,-4.1875 c 0.046875,0 0.296875,0 0.5,0.125 C 4.53125,-4 4.34375,-3.765625 4.34375,-3.515625 c 0,0.15625 0.109375,0.34375 0.375,0.34375 0.21875,0 0.53125,-0.171875 0.53125,-0.578125 0,-0.515625 -0.578125,-0.65625 -0.921875,-0.65625 -0.578125,0 -0.921875,0.53125 -1.046875,0.75 -0.25,-0.65625 -0.78125,-0.75 -1.078125,-0.75 -1.03125,0 -1.609375,1.28125 -1.609375,1.53125 0,0.109375 0.109375,0.109375 0.125,0.109375 0.078125,0 0.109375,-0.03125 0.125,-0.109375 0.34375,-1.0625 1,-1.3125 1.34375,-1.3125 0.1875,0 0.53125,0.09375 0.53125,0.671875 0,0.3125 -0.171875,0.96875 -0.53125,2.375 -0.15625,0.609375 -0.515625,1.03125 -0.953125,1.03125 -0.0625,0 -0.28125,0 -0.5,-0.125 0.25,-0.0625 0.46875,-0.265625 0.46875,-0.546875 0,-0.265625 -0.21875,-0.34375 -0.359375,-0.34375 -0.3125,0 -0.546875,0.25 -0.546875,0.578125 0,0.453125 0.484375,0.65625 0.921875,0.65625 0.671875,0 1.03125,-0.703125 1.046875,-0.75 0.125,0.359375 0.484375,0.75 1.078125,0.75 1.03125,0 1.59375,-1.28125 1.59375,-1.53125 0,-0.109375 -0.078125,-0.109375 -0.109375,-0.109375 -0.09375,0 -0.109375,0.046875 -0.140625,0.109375 -0.328125,1.078125 -1,1.3125 -1.3125,1.3125 -0.390625,0 -0.546875,-0.3125 -0.546875,-0.65625 0,-0.21875 0.046875,-0.4375 0.15625,-0.875 z m 0,0"
                   id="path1955" />
              </g>
            </g>
          </g>
        </g>
        <rect
           style="font-variation-settings:normal;opacity:1;vector-effect:none;fill:none;fill-opacity:1;fill-rule:evenodd;stroke:#000000;stroke-width:0.137801;stroke-linecap:butt;stroke-linejoin:miter;stroke-miterlimit:4;stroke-dasharray:none;stroke-dashoffset:0;stroke-opacity:1;stop-color:#000000;stop-opacity:1"
           id="rect3680"
           width="8.2680464"
           height="8.2680464"
           x="78.07431"
           y="104.88683"
           ry="1.3780077" />
      </g>
      <path
         style="fill:none;stroke:#000000;stroke-width:0.264583;stroke-linecap:butt;stroke-linejoin:miter;stroke-miterlimit:4;stroke-dasharray:none;stroke-dashoffset:0;stroke-opacity:1;marker-end:url(#TriangleOutM)"
         d="M 76.729167,97.895833 H 83.34375"
         id="path3845" />
      <path
         style="fill:none;stroke:#000000;stroke-width:0.264583;stroke-linecap:butt;stroke-linejoin:miter;stroke-miterlimit:4;stroke-dasharray:none;stroke-dashoffset:0;stroke-opacity:1;marker-end:url(#TriangleOutM)"
         d="M 76.729167,111.125 H 83.34375"
         id="path3847" />
      <path
         style="fill:none;stroke:#000000;stroke-width:0.264583px;stroke-linecap:butt;stroke-linejoin:miter;stroke-opacity:1;marker-end:url(#TriangleOutM)"
         d="m 92.604166,97.895832 c 6.614583,0 7.672914,3.174998 7.672914,3.174998"
         id="path3962"
         sodipodi:nodetypes="cc" />
      <path
         style="fill:none;stroke:#000000;stroke-width:0.264583px;stroke-linecap:butt;stroke-linejoin:miter;stroke-opacity:1;marker-end:url(#TriangleOutM)"
         d="m 92.60417,111.125 c 6.614577,0 7.67291,-3.175 7.67291,-3.175"
         id="path3964"
         sodipodi:nodetypes="cc" />
      <text
         xml:space="preserve"
         style="font-style:italic;font-weight:500;font-size:3.72935px;line-height:1.25;font-family:'CMU Serif';-inkscape-font-specification:'CMU Serif, Medium Italic';text-align:center;letter-spacing:0px;word-spacing:0px;text-anchor:middle;stroke-width:0.264583"
         x="74.545357"
         y="111.98589"
         id="text4907"><tspan
           sodipodi:role="line"
           id="tspan4905"
           style="stroke-width:0.264583"
           x="74.545357"
           y="111.98589">a</tspan></text>
      <text
         xml:space="preserve"
         style="font-style:italic;font-weight:500;font-size:3.72935px;line-height:1.25;font-family:'CMU Serif';-inkscape-font-specification:'CMU Serif, Medium Italic';text-align:center;letter-spacing:0px;word-spacing:0px;text-anchor:middle;stroke-width:0.264583"
         x="74.545357"
         y="98.798721"
         id="text5307"><tspan
           sodipodi:role="line"
           id="tspan5305"
           style="stroke-width:0.264583"
           x="74.545357"
           y="98.798721">b</tspan></text>
    </g>
  </g>
</svg>
