<?xml version="1.0" encoding="UTF-8"?>
<svg clip-rule="evenodd" fill-rule="evenodd" stroke-linejoin="round" version="1.1" viewBox="0 0 3415.2 1680.4" xml:space="preserve" xmlns="http://www.w3.org/2000/svg"><g id="Math" transform="translate(-125.93 -102.96)"><rect x="6.784" y="3.393" width="3654.4" height="4400" fill="#fff" fill-rule="nonzero"/><g transform="matrix(1.577 0 0 1.577 -241.56 -968.94)"><g transform="matrix(4.4735 0 0 4.4735 -178.28 -745.12)" font-family="CMUSerif-Roman, 'CMU Serif'" font-size="12px" font-weight="500"><text x="91.859001" y="446.24399">In eac<tspan x="123.154" y="446.24399">h</tspan> of the</text><text x="91.859001" y="458.24399">c<tspan x="96.850998" y="458.24399">h</tspan>ips, there is a</text><text x="91.859001" y="470.24399">grid, with eac<tspan x="163.437" y="470.24399">h</tspan></text><text x="91.859001" y="482.24399">square n<tspan x="135.886 142.543 152.19901 159.189" y="482.24399 482.24399 482.24399 482.24399">umbe</tspan>red.</text><text x="91.859001" y="494.24399">Those squares</text><text x="91.859001" y="506.24399">represen<tspan x="134.914" y="506.24399">t</tspan> b<tspan x="149.879" y="506.24399">y</tspan>tes. A</text><text x="91.859001" y="518.24402">v<tspan x="97.847" y="518.24402">a</tspan>lue of t<tspan x="141.10699 147.429 154.42" y="518.24402 518.24402 518.24402">ype</tspan> in<tspan x="173.381" y="518.24402">t</tspan></text><text x="91.859001" y="530.24402">tak<tspan x="108.5" y="530.24402">e</tspan>s 32 bits, so it</text><text x="91.859001" y="542.24402">migh<tspan x="117.494" y="542.24402">t</tspan> tak<tspan x="142.77699" y="542.24402">e</tspan> 32</text><text x="91.859001" y="554.24402">squares.</text></g><g transform="matrix(4.1667 0 0 4.1667 -70.129 354.79)" font-family="CMUSerif-Roman, 'CMU Serif'" font-size="12px" font-weight="500"><text x="176.60899" y="86.593002">Eac<tspan x="195.757" y="86.593002">h</tspan> of the c<tspan x="245.668" y="86.593002">h</tspan>ips</text><text x="176.60899" y="98.593002">con<tspan x="194.257" y="98.593002">t</tspan>ains all the</text><text x="176.60899" y="110.593">1s and 0s that a</text><text x="176.60899" y="122.593">program uses.</text></g><path d="m954.9 1580.1c0-22.375 0.876-25.669 8.803-33.074 12.259-11.453 18.335-24.387 18.335-39.033 0-13.102-18.317-37.429-28.754-44.739-5.764-4.037 2.177-11.514-0.187-196.75-1.386-108.64-1.93-197.6-1.207-197.68 4.853-0.552 1429.4-9.504 1429.8-8.985 0.262 0.359 1.526 121.63 2.808 269.49l2.332 268.84h-51.236v-20.602c0-17.79-0.81-20.448-5.936-19.472-4.683 0.891-6.152 5.241-6.954 20.602l-1.018 19.472h-46.798l-1.025-17.777c-0.793-13.74-2.374-18.034-6.962-18.906-5.078-0.966-5.936 1.603-5.936 17.777v18.906h-50.545l-1.018-19.472c-0.802-15.361-2.271-19.711-6.953-20.602-5.126-0.976-5.937 1.682-5.937 19.472v20.602h-50.883v-18.657c0-16.396-0.823-18.658-6.785-18.658s-6.784 2.262-6.784 18.658v18.657h-47.153l-1.017-19.472c-0.803-15.361-2.271-19.711-6.954-20.602-5.126-0.976-5.937 1.682-5.937 19.472v20.602h-50.883v-18.657c0-16.396-0.822-18.658-6.785-18.658-5.962 0-6.784 2.262-6.784 18.658v18.657h-50.545l-1.017-19.505c-0.763-14.625-2.291-19.506-6.106-19.506s-5.343 4.881-6.106 19.506l-1.017 19.505h-47.153v-20.602c0-17.79-0.81-20.448-5.936-19.472-4.666 0.888-6.152 5.22-6.943 20.248-1.148 21.798-3.025 23.092-33.602 23.172l-17.648 0.046-1.01-21.167c-0.81-16.98-2.184-21.391-6.946-22.298-5.166-0.985-5.936 1.761-5.936 21.167v22.298h-47.168l-1.01-21.167c-0.81-16.98-2.184-21.391-6.946-22.298-5.166-0.985-5.937 1.761-5.937 21.167v22.298h-47.167l-1.01-21.201c-0.769-16.136-2.226-21.202-6.098-21.202-3.873 0-5.33 5.066-6.099 21.202l-1.01 21.201h-50.236l-1.01-21.201c-0.768-16.136-2.225-21.202-6.098-21.202-3.872 0-5.33 5.066-6.098 21.202l-1.01 21.201h-50.56v-19.788c0-21.303-1.421-24.854-8.812-22.018-3.336 1.28-4.757 7.795-4.757 21.816v19.99h-47.153l-1.017-19.472c-0.802-15.36-2.271-19.711-6.954-20.602-5.126-0.976-5.936 1.682-5.936 19.472v20.602h-50.545l-1.017-19.505c-0.763-14.625-2.291-19.505-6.106-19.505s-5.343 4.88-6.106 19.505l-1.017 19.505h-50.545v-18.092c0-19.624-1.517-23.121-8.812-20.322-3.268 1.254-4.757 7.554-4.757 20.12v18.294h-17.911c-16.002 0-13.991 3.85-23.785-6.534-22.325-23.668-49.958-28.258-78.115-3.474-13.433 11.824-17.237 13.4-32.343 13.4h-17.119l-1.018-19.505c-0.881-16.905-1.922-19.505-7.802-19.505-5.879 0-6.92 2.6-7.801 19.505l-1.018 19.505h-46.829l-1.01-21.167c-0.81-16.98-2.184-21.391-6.946-22.298-5.166-0.984-5.936 1.761-5.936 21.167v22.298h-50.884v-20.353c0-18.092-0.754-20.354-6.784-20.354-6.031 0-6.785 2.262-6.785 20.354v20.353h-47.153l-1.017-19.472c-0.802-15.36-2.271-19.711-6.954-20.602-5.126-0.976-5.936 1.682-5.936 19.472v20.602h-47.491v-24.85zm263.44-101.51c-1.216-26.587-2.217-118.18-2.224-203.53l-0.012-155.2h-211.42l2.243 134.84c1.234 74.163 2.245 165.75 2.248 203.53v68.693h211.37zm1113.8-45.795c0-51.774-1.013-143.36-2.244-203.54l-2.239-109.4h-205.83v407.07h210.32l-0.01-94.134zm-753.07 90.742v-410.46h-210.32v202.97c0 111.63 1.017 203.99 2.261 205.23 1.244 1.244 48.566 2.262 105.16 2.262zm362.97-85.948c0-47.271-1.011-138.86-2.246-203.53l-2.245-117.59h-205.83v407.07h210.32z" fill="#00cd00" fill-rule="nonzero" stroke="#000" stroke-opacity=".4" stroke-width="21.15px"/><path d="m2266.5 1567.2v32.652" fill="none" stroke="#f59a23" stroke-linecap="round" stroke-miterlimit="10" stroke-width="11.02px"/><path d="m2329.4 1564.8v34.154" fill="none" stroke="#f59a23" stroke-linecap="round" stroke-miterlimit="10" stroke-width="11.02px"/><path d="m1761.2 1564.7v38.901" fill="none" stroke="#f59a23" stroke-linecap="round" stroke-miterlimit="10" stroke-width="11.02px"/><path d="m1822 1563.4v38.715" fill="none" stroke="#f59a23" stroke-linecap="round" stroke-miterlimit="10" stroke-width="11.02px"/><path d="m1888.9 1563.6v38.823" fill="none" stroke="#f59a23" stroke-linecap="round" stroke-miterlimit="10" stroke-width="11.02px"/><path d="m1949 1564.9v36.783" fill="none" stroke="#f59a23" stroke-linecap="round" stroke-miterlimit="10" stroke-width="11.02px"/><path d="m2014.3 1566.2v38.23" fill="none" stroke="#f59a23" stroke-linecap="round" stroke-miterlimit="10" stroke-width="11.02px"/><path d="m2076.9 1563.9v37.795" fill="none" stroke="#f59a23" stroke-linecap="round" stroke-miterlimit="10" stroke-width="11.02px"/><path d="m2139.7 1566.3v34.654" fill="none" stroke="#f59a23" stroke-linecap="round" stroke-miterlimit="10" stroke-width="11.02px"/><path d="m2202.3 1564v36.365" fill="none" stroke="#f59a23" stroke-linecap="round" stroke-miterlimit="10" stroke-width="11.02px"/><path d="m1071 1570.1v38.475" fill="none" stroke="#f59a23" stroke-linecap="round" stroke-miterlimit="10" stroke-width="11.02px"/><path d="m1133.7 1568.4v39.567" fill="none" stroke="#f59a23" stroke-linecap="round" stroke-miterlimit="10" stroke-width="11.02px"/><path d="m1197.4 1569.7v37.53" fill="none" stroke="#f59a23" stroke-linecap="round" stroke-miterlimit="10" stroke-width="11.02px"/><path d="m1383.2 1569.5v39.237" fill="none" stroke="#f59a23" stroke-linecap="round" stroke-miterlimit="10" stroke-width="11.02px"/><path d="m1447.9 1569v36.019" fill="none" stroke="#f59a23" stroke-linecap="round" stroke-miterlimit="10" stroke-width="11.02px"/><path d="m1510.3 1568.3v36.444" fill="none" stroke="#f59a23" stroke-linecap="round" stroke-miterlimit="10" stroke-width="11.02px"/><path d="m1572.7 1566.1v37.891" fill="none" stroke="#f59a23" stroke-linecap="round" stroke-miterlimit="10" stroke-width="11.02px"/><path d="m1636.4 1565.2v38.216" fill="none" stroke="#f59a23" stroke-linecap="round" stroke-miterlimit="10" stroke-width="11.02px"/><path d="m1700.4 1565.8v38.149" fill="none" stroke="#f59a23" stroke-linecap="round" stroke-miterlimit="10" stroke-width="11.02px"/><path d="m1008.2 1571.9v35.761" fill="none" stroke="#f59a23" stroke-linecap="round" stroke-miterlimit="10" stroke-width="11.02px"/><path d="m945.06 1061.5c10.031-0.062 20.062-0.123 30.092-0.185 10.031-0.061 20.062-0.123 30.093-0.185 10.03-0.062 20.061-0.123 30.092-0.185 10.03-0.061 20.061-0.123 30.092-0.185 10.03-0.062 20.061-0.123 30.092-0.185 10.031-0.061 20.061-0.123 30.092-0.185s20.061-0.123 30.092-0.185c10.031-0.061 20.061-0.123 30.092-0.185s20.062-0.123 30.092-0.185c10.031-0.061 20.062-0.123 30.092-0.185 10.031-0.062 20.062-0.123 30.093-0.185 10.03-0.061 20.061-0.123 30.091-0.185 10.031-0.062 20.062-0.123 30.093-0.185 10.031-0.061 20.061-0.123 30.092-0.185s20.061-0.123 30.092-0.185c10.031-0.061 20.061-0.123 30.092-0.185s20.062-0.123 30.092-0.185c10.031-0.061 20.062-0.123 30.092-0.185 10.031-0.062 20.062-0.123 30.093-0.185 10.03-0.061 20.061-0.123 30.091-0.185 10.031-0.062 20.062-0.123 30.093-0.185 10.031-0.061 20.061-0.123 30.092-0.185s20.061-0.123 30.092-0.185c10.031-0.061 20.061-0.123 30.092-0.185s20.061-0.123 30.092-0.185c10.031-0.061 20.062-0.123 30.092-0.185 10.031-0.062 20.062-0.123 30.092-0.185 10.031-0.061 20.062-0.123 30.093-0.185 10.03-0.062 20.061-0.123 30.092-0.185 10.031-0.061 20.061-0.123 30.092-0.185 10.03-0.062 20.061-0.123 30.092-0.185 10.03-0.061 20.061-0.123 30.092-0.185s20.061-0.123 30.092-0.185c10.031-0.061 20.062-0.123 30.093-0.185 10.03-0.062 20.061-0.123 30.092-0.185 10.03-0.061 20.061-0.123 30.091-0.185 10.031-0.062 20.062-0.123 30.093-0.185 10.03-0.061 20.061-0.123 30.092-0.185 10.031-0.061 20.061-0.123 30.092-0.185 10.031-0.061 20.061-0.123 30.092-0.185s20.061-0.123 30.092-0.185c10.031-0.061 20.062-0.123 30.092-0.185 10.031-0.061 20.062-0.123 30.092-0.185 10.031-0.061 20.062-0.123 30.092-0.185 10.031-0.062 20.062-0.123 30.093-0.185 10.03-0.061 20.061-0.123 30.092-0.185 10.031-0.061 20.061-0.123 30.092-0.185 10.031-0.061 20.061-0.123 30.092-0.185 0.059 9.662 0.119 19.325 0.178 28.987 0.06 9.662 0.119 19.324 0.178 28.986 0.06 9.662 0.119 19.325 0.178 28.987 0.06 9.662 0.12 19.324 0.179 28.987 0.059 9.662 0.118 19.324 0.178 28.986s0.119 19.325 0.178 28.987c0.06 9.662 0.119 19.324 0.179 28.986 0.059 9.662 0.118 19.325 0.178 28.987l0.356 57.973c0.059 9.662 0.119 19.324 0.178 28.986l0.357 57.974c0.059 9.662 0.118 19.324 0.178 28.986 0.059 9.663 0.119 19.325 0.178 28.987s0.119 19.324 0.178 28.986c0.06 9.663 0.119 19.325 0.178 28.987 0.06 9.662 0.119 19.324 0.179 28.987 0.059 9.662 0.119 19.324 0.178 28.986-10.031 0.062-20.062 0.123-30.092 0.185-10.031 0.062-20.062 0.123-30.092 0.185-10.031 0.062-20.062 0.124-30.093 0.185-10.03 0.062-20.061 0.123-30.092 0.185-10.03 0.062-20.061 0.123-30.092 0.185s-20.061 0.123-30.092 0.185-20.061 0.123-30.092 0.185-20.061 0.123-30.092 0.185-20.062 0.123-30.092 0.185c-10.031 0.062-20.062 0.123-30.093 0.185-10.03 0.062-20.061 0.123-30.091 0.185-10.031 0.062-20.062 0.123-30.093 0.185-10.03 0.062-20.061 0.123-30.092 0.185s-20.061 0.123-30.092 0.185-20.061 0.123-30.092 0.185-20.061 0.123-30.092 0.185c-10.031 0.061-20.061 0.123-30.092 0.185s-20.062 0.123-30.092 0.185c-10.031 0.062-20.062 0.123-30.093 0.185-10.03 0.062-20.061 0.123-30.091 0.185-10.031 0.061-20.062 0.123-30.093 0.185s-20.061 0.123-30.092 0.185-20.061 0.123-30.092 0.185-20.061 0.123-30.092 0.185c-10.031 0.061-20.061 0.123-30.092 0.185s-20.062 0.123-30.092 0.185c-10.031 0.061-20.062 0.123-30.092 0.185-10.031 0.062-20.062 0.123-30.092 0.185-10.031 0.062-20.062 0.123-30.093 0.185-10.03 0.062-20.061 0.123-30.092 0.185-10.031 0.061-20.061 0.123-30.092 0.185s-20.061 0.123-30.092 0.185-20.061 0.123-30.092 0.185-20.062 0.123-30.092 0.185c-10.031 0.061-20.062 0.123-30.093 0.185m-90.276 0.555c-10.031 0.061-20.061 0.123-30.092 0.185s-20.061 0.123-30.092 0.185c-10.031 0.061-20.061 0.123-30.092 0.185s-20.062 0.123-30.092 0.185c-10.031 0.061-20.062 0.123-30.092 0.185-10.031 0.062-20.062 0.123-30.092 0.185-10.031 0.061-20.062 0.123-30.093 0.185-10.03 0.061-20.061 0.123-30.092 0.185-10.031 0.061-20.061 0.123-30.092 0.185s-20.061 0.123-30.092 0.185c-0.059-9.663-0.119-19.325-0.178-28.987-0.06-9.662-0.119-19.324-0.179-28.986m-0.534-86.96c-0.06-9.662-0.119-19.324-0.178-28.987l-0.357-57.973c-0.059-9.662-0.118-19.324-0.178-28.986-0.059-9.663-0.119-19.325-0.178-28.987s-0.119-19.324-0.178-28.986l-0.357-57.974c-0.059-9.662-0.118-19.324-0.178-28.986l-0.356-57.973c-0.06-9.662-0.119-19.325-0.178-28.987-0.06-9.662-0.119-19.324-0.179-28.986-0.059-9.662-0.118-19.325-0.178-28.987" fill="none" stroke="#000" stroke-linecap="round" stroke-miterlimit="10" stroke-width="10.25px"/><path d="m1010.1 1123.1 203.39-0.708 1.399 401.73-203.39 0.708-1.399-401.73" fill="none" stroke="#000" stroke-linecap="round" stroke-miterlimit="10" stroke-width="3.02px"/><path d="m1010 1164.9 202.49-0.706" fill="none" stroke="#000" stroke-linecap="round" stroke-miterlimit="10" stroke-width="2.01px"/><path d="m1012 1204.7 200.73-0.699" fill="none" stroke="#000" stroke-linecap="round" stroke-miterlimit="10" stroke-width="2.01px"/><path d="m1011.9 1244.5 202.19-0.704" fill="none" stroke="#000" stroke-linecap="round" stroke-miterlimit="10" stroke-width="2.01px"/><path d="m1011.1 1286.2 203.65-0.709" fill="none" stroke="#000" stroke-linecap="round" stroke-miterlimit="10" stroke-width="2.01px"/><path d="m1012.1 1327.2 201.97-0.703" fill="none" stroke="#000" stroke-linecap="round" stroke-miterlimit="10" stroke-width="2.01px"/><path d="m1011 1365.8 201.76-0.703" fill="none" stroke="#000" stroke-linecap="round" stroke-miterlimit="10" stroke-width="2.01px"/><path d="m1013.4 1405.6 201.54-0.701" fill="none" stroke="#000" stroke-linecap="round" stroke-miterlimit="10" stroke-width="2.01px"/><path d="m1011.4 1446.4 203.06-0.707" fill="none" stroke="#000" stroke-linecap="round" stroke-miterlimit="10" stroke-width="2.01px"/><path d="m1012.1 1486.8 201.68-0.702" fill="none" stroke="#000" stroke-linecap="round" stroke-miterlimit="10" stroke-width="2.01px"/><path d="m1051 1124.2 1.387 398.41" fill="none" stroke="#000" stroke-linecap="round" stroke-miterlimit="10" stroke-width="2.01px"/><path d="m1090.8 1122.2 1.396 400.68" fill="none" stroke="#000" stroke-linecap="round" stroke-miterlimit="10" stroke-width="2.01px"/><path d="m1131.6 1122.5 1.391 399.39" fill="none" stroke="#000" stroke-linecap="round" stroke-miterlimit="10" stroke-width="2.01px"/><path d="m1171 1123 1.397 401" fill="none" stroke="#000" stroke-linecap="round" stroke-miterlimit="10" stroke-width="2.01px"/><path d="m1372.2 1117.7 203.39-0.708 1.399 401.73-203.39 0.708-1.399-401.73" fill-rule="nonzero" stroke="#000" stroke-linecap="round" stroke-miterlimit="10" stroke-width="3.02px"/><path d="m1372.1 1159.6 202.49-0.704" fill="none" stroke="#000" stroke-linecap="round" stroke-miterlimit="10" stroke-width="2.01px"/><path d="m1374.1 1199.4 200.73-0.699" fill="none" stroke="#000" stroke-linecap="round" stroke-miterlimit="10" stroke-width="2.01px"/><path d="m1374 1239.1 202.19-0.704" fill="none" stroke="#000" stroke-linecap="round" stroke-miterlimit="10" stroke-width="2.01px"/><path d="m1373.2 1280.9 203.65-0.709" fill="none" stroke="#000" stroke-linecap="round" stroke-miterlimit="10" stroke-width="2.01px"/><path d="m1374.2 1321.9 201.97-0.703" fill="none" stroke="#000" stroke-linecap="round" stroke-miterlimit="10" stroke-width="2.01px"/><path d="m1373.1 1360.5 201.76-0.703" fill="none" stroke="#000" stroke-linecap="round" stroke-miterlimit="10" stroke-width="2.01px"/><path d="m1375.5 1400.2 201.54-0.703" fill="none" stroke="#000" stroke-linecap="round" stroke-miterlimit="10" stroke-width="2.01px"/><path d="m1373.5 1441 203.06-0.708" fill="none" stroke="#000" stroke-linecap="round" stroke-miterlimit="10" stroke-width="2.01px"/><path d="m1374.2 1481.4 201.68-0.702" fill="none" stroke="#000" stroke-linecap="round" stroke-miterlimit="10" stroke-width="2.01px"/><path d="m1413.1 1118.9 1.388 398.41" fill="none" stroke="#000" stroke-linecap="round" stroke-miterlimit="10" stroke-width="2.01px"/><path d="m1452.9 1116.8 1.395 400.68" fill="none" stroke="#000" stroke-linecap="round" stroke-miterlimit="10" stroke-width="2.01px"/><path d="m1493.7 1117.1 1.391 399.39" fill="none" stroke="#000" stroke-linecap="round" stroke-miterlimit="10" stroke-width="2.01px"/><path d="m1533.1 1117.6 1.397 401" fill="none" stroke="#000" stroke-linecap="round" stroke-miterlimit="10" stroke-width="2.01px"/><path d="m1733.2 1120.3 203.39-0.708 1.399 401.73-203.39 0.708-1.399-401.73" fill-rule="nonzero" stroke="#000" stroke-linecap="round" stroke-miterlimit="10" stroke-width="3.02px"/><path d="m1733.2 1162.1 202.49-0.705" fill="none" stroke="#000" stroke-linecap="round" stroke-miterlimit="10" stroke-width="2.01px"/><path d="m1735.2 1201.9 200.73-0.699" fill="none" stroke="#000" stroke-linecap="round" stroke-miterlimit="10" stroke-width="2.01px"/><path d="m1735.1 1241.7 202.19-0.704" fill="none" stroke="#000" stroke-linecap="round" stroke-miterlimit="10" stroke-width="2.01px"/><path d="m1734.2 1283.4 203.65-0.709" fill="none" stroke="#000" stroke-linecap="round" stroke-miterlimit="10" stroke-width="2.01px"/><path d="m1735.3 1324.4 201.97-0.703" fill="none" stroke="#000" stroke-linecap="round" stroke-miterlimit="10" stroke-width="2.01px"/><path d="m1734.2 1363 201.76-0.702" fill="none" stroke="#000" stroke-linecap="round" stroke-miterlimit="10" stroke-width="2.01px"/><path d="m1736.6 1402.8 201.54-0.702" fill="none" stroke="#000" stroke-linecap="round" stroke-miterlimit="10" stroke-width="2.01px"/><path d="m1734.6 1443.6 203.06-0.707" fill="none" stroke="#000" stroke-linecap="round" stroke-miterlimit="10" stroke-width="2.01px"/><path d="m1735.3 1483.9 201.68-0.702" fill="none" stroke="#000" stroke-linecap="round" stroke-miterlimit="10" stroke-width="2.01px"/><path d="m1774.2 1121.4 1.387 398.41" fill="none" stroke="#000" stroke-linecap="round" stroke-miterlimit="10" stroke-width="2.01px"/><path d="m1814 1119.4 1.395 400.68" fill="none" stroke="#000" stroke-linecap="round" stroke-miterlimit="10" stroke-width="2.01px"/><path d="m1854.8 1119.6 1.391 399.39" fill="none" stroke="#000" stroke-linecap="round" stroke-miterlimit="10" stroke-width="2.01px"/><path d="m1894.2 1120.1 1.396 401" fill="none" stroke="#000" stroke-linecap="round" stroke-miterlimit="10" stroke-width="2.01px"/><path d="m2123.4 1123.4 203.39-0.708 1.399 401.73-203.39 0.708-1.399-401.73" fill-rule="nonzero" stroke="#000" stroke-linecap="round" stroke-miterlimit="10" stroke-width="3.02px"/><path d="m2123.4 1165.2 202.49-0.705" fill="none" stroke="#000" stroke-linecap="round" stroke-miterlimit="10" stroke-width="2.01px"/><path d="m2125.4 1205 200.73-0.699" fill="none" stroke="#000" stroke-linecap="round" stroke-miterlimit="10" stroke-width="2.01px"/><path d="m2125.3 1244.8 202.19-0.704" fill="none" stroke="#000" stroke-linecap="round" stroke-miterlimit="10" stroke-width="2.01px"/><path d="m2124.4 1286.5 203.65-0.71" fill="none" stroke="#000" stroke-linecap="round" stroke-miterlimit="10" stroke-width="2.01px"/><path d="m2125.4 1327.5 201.97-0.704" fill="none" stroke="#000" stroke-linecap="round" stroke-miterlimit="10" stroke-width="2.01px"/><path d="m2124.3 1366.1 201.76-0.702" fill="none" stroke="#000" stroke-linecap="round" stroke-miterlimit="10" stroke-width="2.01px"/><path d="m2126.8 1405.9 201.54-0.702" fill="none" stroke="#000" stroke-linecap="round" stroke-miterlimit="10" stroke-width="2.01px"/><path d="m2124.7 1446.7 203.06-0.707" fill="none" stroke="#000" stroke-linecap="round" stroke-miterlimit="10" stroke-width="2.01px"/><path d="m2125.4 1487.1 201.68-0.703" fill="none" stroke="#000" stroke-linecap="round" stroke-miterlimit="10" stroke-width="2.01px"/><path d="m2164.3 1124.5 1.388 398.41" fill="none" stroke="#000" stroke-linecap="round" stroke-miterlimit="10" stroke-width="2.01px"/><path d="m2204.1 1122.5 1.396 400.68" fill="none" stroke="#000" stroke-linecap="round" stroke-miterlimit="10" stroke-width="2.01px"/><path d="m2245 1122.8 1.391 399.39" fill="none" stroke="#000" stroke-linecap="round" stroke-miterlimit="10" stroke-width="2.01px"/><path d="m2284.4 1123.2 1.397 401" fill="none" stroke="#000" stroke-linecap="round" stroke-miterlimit="10" stroke-width="2.01px"/><path d="m948.45 1467.8c35.824 26.29 36.509 53.342 2.054 81.157" fill="none" stroke="#000" stroke-linecap="round" stroke-miterlimit="10" stroke-width="11.02px"/><path d="m1248.5 1609.2c34.456-40.461 63.216-39.898 86.281 1.688" fill="none" stroke="#000" stroke-linecap="round" stroke-miterlimit="10" stroke-width="11.02px"/><g fill="none" stroke="#000" stroke-linecap="round" stroke-miterlimit="1.5" stroke-width="4.17px"><path d="m1012.3 869.72 92.618 252.75"/><path d="m695.18 1409.9 375.11-33.679"/><path d="m1058.6 869.72 354.46 249.16"/><path d="m1104.9 792.98 709.04 325.91"/><path d="m1104.9 713.08 1059.4 411.45"/></g></g></g></svg>
