<?xml version="1.0" encoding="UTF-8"?>
<svg width="56.747mm" height="83.961mm" version="1.1" viewBox="0 0 56.747 83.961" xmlns="http://www.w3.org/2000/svg" xmlns:osb="http://www.openswatchbook.org/uri/2009/osb">
 <g transform="translate(-37.801 -77.866)">
  <rect x="26.836" y="70.115" width="49.326" height="78.241" rx="0" ry="4.6302" fill="none" stroke-width=".26458"/>
  <g fill="none" stroke="#000">
   <rect x="40.065" y="80.131" width="52.35" height="79.564" stroke-width=".26458"/>
   <path d="m39.933 79.999v79.829m13.229-79.829v79.829m13.229-79.829v79.829m13.229-79.829v79.829m-39.687-79.829h52.614m-52.614 13.229h52.614m-52.614 13.229h52.614m-52.614 13.229h52.614m-52.614 13.229h52.614m-52.614 13.229h52.614m-52.614 13.229h52.614" stroke-width=".26458px"/>
   <path d="m39.933 79.999v79.829m13.229-79.829v79.829m13.229-79.829v79.829m13.229-79.829v79.829m-39.687-79.829h52.614m-52.614 13.229h52.614m-52.614 13.229h52.614m-52.614 13.229h52.614m-52.614 13.229h52.614m-52.614 13.229h52.614m-52.614 13.229h52.614" stroke-width=".26458px"/>
  </g>
  <g transform="translate(-.18899 -.56696)" font-family="'CMU Serif'" letter-spacing="0px" stroke-width=".26458" text-anchor="middle" word-spacing="0px">
   <text x="46.858196" y="84.855652" font-size="3.5278px" text-align="center" style="line-height:1.25" xml:space="preserve"><tspan x="46.858196" y="84.855652" stroke-width=".26458">72</tspan></text>
   <text x="46.950352" y="88.759354" font-size="3.5278px" text-align="center" style="line-height:1.25" xml:space="preserve"><tspan x="46.950352" y="88.759354" stroke-width=".26458">c1</tspan></text>
   <text x="46.869049" y="92.415184" font-size="2.8222px" text-align="center" style="line-height:1.25" xml:space="preserve"><tspan x="46.869049" y="92.415184" font-size="2.8222px" stroke-width=".26458">01001000</tspan></text>
  </g>
  <g transform="translate(-.37798)" font-family="'CMU Serif'" letter-spacing="0px" stroke-width=".26458" text-anchor="middle" word-spacing="0px">
   <text x="60.015701" y="83.910713" font-size="3.5278px" text-align="center" style="line-height:1.25" xml:space="preserve"><tspan x="60.015701" y="83.910713" stroke-width=".26458">73</tspan></text>
   <text x="60.068237" y="88.19239" font-size="3.5278px" text-align="center" style="line-height:1.25" xml:space="preserve"><tspan x="60.068237" y="88.19239" stroke-width=".26458">c2</tspan></text>
   <text x="60.098209" y="92.226189" font-size="2.8222px" text-align="center" style="line-height:1.25" xml:space="preserve"><tspan x="60.098209" y="92.226189" font-size="2.8222px" stroke-width=".26458">01001001</tspan></text>
  </g>
  <g transform="translate(-.37798 .18899)" font-family="'CMU Serif'" letter-spacing="0px" stroke-width=".26458" text-anchor="middle" word-spacing="0px">
   <text x="73.269844" y="84.099701" font-size="3.5278px" text-align="center" style="line-height:1.25" xml:space="preserve"><tspan x="73.269844" y="84.099701" stroke-width=".26458">33</tspan></text>
   <text x="73.283623" y="88.182053" font-size="3.5278px" text-align="center" style="line-height:1.25" xml:space="preserve"><tspan x="73.283623" y="88.182053" stroke-width=".26458">c3</tspan></text>
   <text x="73.327377" y="92.037201" font-size="2.8222px" text-align="center" style="line-height:1.25" xml:space="preserve"><tspan x="73.327377" y="92.037201" font-size="2.8222px" stroke-width=".26458">00100001</tspan></text>
  </g>
  <g stroke="#0ff" stroke-linejoin="round" stroke-opacity=".40081" stroke-width="1.4038">
   <path transform="scale(.26458)" d="m152.14 577.14v-24.286h47.857v48.571h-47.857z"/>
   <path transform="scale(.26458)" d="m201.43 577.14v-24.286h48.571v48.571h-48.571z"/>
   <path transform="scale(.26458)" d="m251.43 577.14v-24.286h48.571v48.571h-48.571z"/>
   <path transform="scale(.26458)" d="m301.43 577.14v-24.286h47.143v48.571h-47.143z"/>
   <path transform="scale(.26458)" d="m301.43 527.14v-24.286h47.143v48.571h-47.143z"/>
   <path transform="scale(.26458)" d="m251.43 527.14v-24.286h48.571v48.571h-48.571z"/>
   <path transform="scale(.26458)" d="m201.43 527.14v-24.286h48.571v48.571h-48.571z"/>
   <path transform="scale(.26458)" d="m152.14 527.14v-24.286h47.857v48.571h-47.857z"/>
   <path transform="scale(.26458)" d="m152.14 477.14v-24.286h47.857v48.571h-47.857z"/>
   <path transform="scale(.26458)" d="m201.43 477.14v-24.286h48.571v48.571h-48.571z"/>
   <path transform="scale(.26458)" d="m251.43 477.14v-24.286h48.571v48.571h-48.571z"/>
   <path transform="scale(.26458)" d="m301.43 477.14v-24.286h47.143v48.571h-47.143z"/>
   <path transform="scale(.26458)" d="m301.43 427.14v-24.286h47.143v48.571h-47.143z"/>
   <path transform="scale(.26458)" d="m251.43 427.14v-24.286h48.571v48.571h-48.571z"/>
   <path transform="scale(.26458)" d="m201.43 427.14v-24.286h48.571v48.571h-48.571z"/>
   <path transform="scale(.26458)" d="m152.14 427.14v-24.286h47.857v48.571h-47.857z"/>
   <path transform="scale(.26458)" d="m152.14 377.14v-24.286h47.857v48.571h-47.857z"/>
   <path transform="scale(.26458)" d="m201.43 377.14v-24.286h48.571v48.571h-48.571z"/>
   <path transform="scale(.26458)" d="m251.43 377.14v-24.286h48.571v48.571h-48.571z"/>
   <path transform="scale(.26458)" d="m301.43 377.14v-24.286h47.143v48.571h-47.143z"/>
   <path transform="scale(.26458)" d="m301.43 327.5v-23.929h47.143v47.857h-47.143z"/>
  </g>
 </g>
</svg>
