<?xml version="1.0" encoding="UTF-8" standalone="no"?>
<svg
   xmlns:dc="http://purl.org/dc/elements/1.1/"
   xmlns:cc="http://creativecommons.org/ns#"
   xmlns:rdf="http://www.w3.org/1999/02/22-rdf-syntax-ns#"
   xmlns:svg="http://www.w3.org/2000/svg"
   xmlns="http://www.w3.org/2000/svg"
   xmlns:sodipodi="http://sodipodi.sourceforge.net/DTD/sodipodi-0.dtd"
   xmlns:inkscape="http://www.inkscape.org/namespaces/inkscape"
   width="54.810585mm"
   height="81.961288mm"
   version="1.1"
   viewBox="0 0 54.810585 81.961288"
   id="svg122"
   sodipodi:docname="stringS.svg"
   inkscape:version="1.0.2 (e86c8708, 2021-01-15)">
  <metadata
     id="metadata128">
    <rdf:RDF>
      <cc:Work
         rdf:about="">
        <dc:format>image/svg+xml</dc:format>
        <dc:type
           rdf:resource="http://purl.org/dc/dcmitype/StillImage" />
        <dc:title></dc:title>
      </cc:Work>
    </rdf:RDF>
  </metadata>
  <defs
     id="defs126" />
  <sodipodi:namedview
     pagecolor="#ffffff"
     bordercolor="#666666"
     borderopacity="1"
     objecttolerance="10"
     gridtolerance="10"
     guidetolerance="10"
     inkscape:pageopacity="0"
     inkscape:pageshadow="2"
     inkscape:window-width="988"
     inkscape:window-height="601"
     id="namedview124"
     showgrid="false"
     inkscape:zoom="0.71614323"
     inkscape:cx="26.86606"
     inkscape:cy="56.757946"
     inkscape:window-x="1174"
     inkscape:window-y="52"
     inkscape:window-maximized="0"
     inkscape:current-layer="svg122"
     lock-margins="true"
     fit-margin-top="1"
     fit-margin-left="1"
     fit-margin-right="1"
     fit-margin-bottom="1" />
  <rect
     x="-4.2218685"
     y="-3.5793297"
     width="49.385857"
     height="78.240997"
     rx="0"
     ry="4.6301999"
     fill="none"
     stroke-width="0.26474"
     id="rect10" />
  <g
     id="g380"
     transform="translate(-11.980442,-8.751712)">
    <g
       fill="none"
       stroke="#000000"
       id="g18"
       transform="matrix(1.0012135,0,0,1,-26.868566,-70.114998)">
      <rect
         x="40.064999"
         y="80.130997"
         width="52.349998"
         height="79.564003"
         stroke-width="0.26458"
         id="rect12" />
      <path
         d="m 39.933,79.999 v 79.829 M 53.162,79.999 v 79.829 M 66.391,79.999 v 79.829 M 79.62,79.999 v 79.829 M 39.933,79.999 H 92.547 M 39.933,93.228 h 52.614 m -52.614,13.229 h 52.614 m -52.614,13.229 h 52.614 m -52.614,13.229 h 52.614 m -52.614,13.229 h 52.614 m -52.614,13.229 h 52.614"
         stroke-width="0.26458px"
         id="path14" />
      <path
         d="m 39.933,79.999 v 79.829 M 53.162,79.999 v 79.829 M 66.391,79.999 v 79.829 M 79.62,79.999 v 79.829 M 39.933,79.999 H 92.547 M 39.933,93.228 h 52.614 m -52.614,13.229 h 52.614 m -52.614,13.229 h 52.614 m -52.614,13.229 h 52.614 m -52.614,13.229 h 52.614 m -52.614,13.229 h 52.614"
         stroke-width="0.26458px"
         id="path16" />
    </g>
    <g
       font-family="'CMU Serif'"
       letter-spacing="0px"
       stroke-width="0.26458"
       text-anchor="middle"
       word-spacing="0px"
       id="g62"
       transform="matrix(1.0012135,0,0,1,-26.868566,-70.114998)">
      <g
         transform="translate(-0.18899,-0.56696)"
         id="g32">
        <text
           x="46.858196"
           y="84.855652"
           font-size="3.5278px"
           text-align="center"
           style="line-height:1.25"
           xml:space="preserve"
           id="text22"><tspan
             x="46.858196"
             y="84.855652"
             stroke-width="0.26458"
             id="tspan20">72</tspan></text>
        <text
           x="46.950352"
           y="88.759354"
           font-size="3.5278px"
           text-align="center"
           style="line-height:1.25"
           xml:space="preserve"
           id="text26"><tspan
             x="46.950352"
             y="88.759354"
             stroke-width="0.26458"
             id="tspan24">c1</tspan></text>
        <text
           x="46.869049"
           y="92.415184"
           font-size="2.8222px"
           text-align="center"
           style="line-height:1.25"
           xml:space="preserve"
           id="text30"><tspan
             x="46.869049"
             y="92.415184"
             font-size="2.8222px"
             stroke-width="0.26458"
             id="tspan28">01001000</tspan></text>
      </g>
      <g
         transform="translate(-0.37798)"
         id="g46">
        <text
           x="60.015701"
           y="83.910713"
           font-size="3.5278px"
           text-align="center"
           style="line-height:1.25"
           xml:space="preserve"
           id="text36"><tspan
             x="60.015701"
             y="83.910713"
             stroke-width="0.26458"
             id="tspan34">73</tspan></text>
        <text
           x="60.068237"
           y="88.19239"
           font-size="3.5278px"
           text-align="center"
           style="line-height:1.25"
           xml:space="preserve"
           id="text40"><tspan
             x="60.068237"
             y="88.19239"
             stroke-width="0.26458"
             id="tspan38">c2</tspan></text>
        <text
           x="60.098209"
           y="92.226189"
           font-size="2.8222px"
           text-align="center"
           style="line-height:1.25"
           xml:space="preserve"
           id="text44"><tspan
             x="60.098209"
             y="92.226189"
             font-size="2.8222px"
             stroke-width="0.26458"
             id="tspan42">01001001</tspan></text>
      </g>
      <g
         transform="translate(-0.37798,0.18899)"
         id="g60">
        <text
           x="73.269844"
           y="84.099701"
           font-size="3.5278px"
           text-align="center"
           style="line-height:1.25"
           xml:space="preserve"
           id="text50"><tspan
             x="73.269844"
             y="84.099701"
             stroke-width="0.26458"
             id="tspan48">33</tspan></text>
        <text
           x="73.283623"
           y="88.182053"
           font-size="3.5278px"
           text-align="center"
           style="line-height:1.25"
           xml:space="preserve"
           id="text54"><tspan
             x="73.283623"
             y="88.182053"
             stroke-width="0.26458"
             id="tspan52">c3</tspan></text>
        <text
           x="73.327377"
           y="92.037201"
           font-size="2.8222px"
           text-align="center"
           style="line-height:1.25"
           xml:space="preserve"
           id="text58"><tspan
             x="73.327377"
             y="92.037201"
             font-size="2.8222px"
             stroke-width="0.26458"
             id="tspan56">00100001</tspan></text>
      </g>
    </g>
    <g
       stroke="#00ffff"
       stroke-linejoin="round"
       stroke-opacity="0.40081"
       stroke-width="1.4038"
       id="g106"
       transform="matrix(1.0012135,0,0,1,-26.868566,-70.114998)">
      <path
         transform="scale(0.26458)"
         d="m 152.14,577.14 v -24.286 h 47.857 v 48.571 H 152.14 Z"
         id="path64" />
      <path
         transform="scale(0.26458)"
         d="m 201.43,577.14 v -24.286 h 48.571 v 48.571 H 201.43 Z"
         id="path66" />
      <path
         transform="scale(0.26458)"
         d="m 251.43,577.14 v -24.286 h 48.571 v 48.571 H 251.43 Z"
         id="path68" />
      <path
         transform="scale(0.26458)"
         d="m 301.43,577.14 v -24.286 h 47.143 v 48.571 H 301.43 Z"
         id="path70" />
      <path
         transform="scale(0.26458)"
         d="m 301.43,527.14 v -24.286 h 47.143 v 48.571 H 301.43 Z"
         id="path72" />
      <path
         transform="scale(0.26458)"
         d="m 251.43,527.14 v -24.286 h 48.571 v 48.571 H 251.43 Z"
         id="path74" />
      <path
         transform="scale(0.26458)"
         d="m 201.43,527.14 v -24.286 h 48.571 v 48.571 H 201.43 Z"
         id="path76" />
      <path
         transform="scale(0.26458)"
         d="m 152.14,527.14 v -24.286 h 47.857 v 48.571 H 152.14 Z"
         id="path78" />
      <path
         transform="scale(0.26458)"
         d="m 152.14,477.14 v -24.286 h 47.857 v 48.571 H 152.14 Z"
         id="path80" />
      <path
         transform="scale(0.26458)"
         d="m 201.43,477.14 v -24.286 h 48.571 v 48.571 H 201.43 Z"
         id="path82" />
      <path
         transform="scale(0.26458)"
         d="m 251.43,477.14 v -24.286 h 48.571 v 48.571 H 251.43 Z"
         id="path84" />
      <path
         transform="scale(0.26458)"
         d="m 301.43,477.14 v -24.286 h 47.143 v 48.571 H 301.43 Z"
         id="path86" />
      <path
         transform="scale(0.26458)"
         d="m 301.43,427.14 v -24.286 h 47.143 v 48.571 H 301.43 Z"
         id="path88" />
      <path
         transform="scale(0.26458)"
         d="m 251.43,427.14 v -24.286 h 48.571 v 48.571 H 251.43 Z"
         id="path90" />
      <path
         transform="scale(0.26458)"
         d="m 201.43,427.14 v -24.286 h 48.571 v 48.571 H 201.43 Z"
         id="path92" />
      <path
         transform="scale(0.26458)"
         d="m 152.14,427.14 v -24.286 h 47.857 v 48.571 H 152.14 Z"
         id="path94" />
      <path
         transform="scale(0.26458)"
         d="m 152.14,377.14 v -24.286 h 47.857 v 48.571 H 152.14 Z"
         id="path96" />
      <path
         transform="scale(0.26458)"
         d="m 201.43,377.14 v -24.286 h 48.571 v 48.571 H 201.43 Z"
         id="path98" />
      <path
         transform="scale(0.26458)"
         d="m 251.43,377.14 v -24.286 h 48.571 v 48.571 H 251.43 Z"
         id="path100" />
      <path
         transform="scale(0.26458)"
         d="m 301.43,377.14 v -24.286 h 47.143 v 48.571 H 301.43 Z"
         id="path102" />
      <path
         transform="scale(0.26458)"
         d="m 301.43,327.5 v -23.929 h 47.143 v 47.857 H 301.43 Z"
         id="path104" />
    </g>
    <rect
       x="13.229"
       y="10.014003"
       width="39.687"
       height="12.85"
       fill="#ffffff"
       fill-rule="evenodd"
       stroke="#ff0000"
       id="rect110"
       style="stroke-width:0.26458" />
    <text
       x="33.167049"
       y="17.703899"
       font-family="'CMU Serif'"
       font-size="3.5278px"
       letter-spacing="0px"
       text-align="center"
       text-anchor="middle"
       word-spacing="0px"
       style="line-height:1.25;stroke-width:0.26458"
       xml:space="preserve"
       id="text114"><tspan
         x="33.167049"
         y="17.703899"
         stroke-width="0.26458"
         id="tspan112">HI!</tspan></text>
    <text
       x="33.065586"
       y="20.920734"
       font-family="'CMU Serif'"
       font-size="2.8222px"
       letter-spacing="0px"
       text-align="center"
       text-anchor="middle"
       word-spacing="0px"
       style="line-height:1.25;stroke-width:0.26458"
       xml:space="preserve"
       id="text118"><tspan
         x="33.065586"
         y="20.920734"
         font-family="'CMU Typewriter Text'"
         font-size="2.8222px"
         stroke-width="0.26458"
         id="tspan116">s</tspan></text>
  </g>
</svg>
