<?xml version="1.0" encoding="UTF-8"?>
<svg width="99.731mm" height="67.36mm" version="1.1" viewBox="0 0 99.731 67.36" xmlns="http://www.w3.org/2000/svg">
 <g transform="translate(-66.561 -81.349)">
  <g transform="matrix(1.8943 0 0 1.8943 53.775 113.88)" fill="#fff" fill-opacity=".42915" fill-rule="evenodd" stroke="#000">
   <rect x="29.104" y="11.906" width="7.9375" height="5.2917" stroke-width=".26458"/>
   <rect x="29.082" y="11.026" width="2.69" height=".90274" ry="2.1693e-7" stroke-width=".22038"/>
  </g>
  <text x="116.42982" y="142.3035" font-family="'CMU Serif'" font-size="6.6828px" stroke-width=".50121" text-align="center" text-anchor="middle" style="line-height:1.25" xml:space="preserve"><tspan x="116.42982" y="142.3035" font-size="6.6828px" stroke-width=".50121">/</tspan></text>
  <g transform="matrix(1.8943 0 0 1.8943 13.678 96.337)" fill="#6c5353" fill-opacity=".42915" fill-rule="evenodd" stroke="#000">
   <rect x="29.104" y="11.906" width="7.9375" height="5.2917" stroke-width=".26458"/>
   <rect x="29.082" y="11.026" width="2.69" height=".90274" ry="2.1693e-7" stroke-width=".22038"/>
  </g>
  <text x="76.312042" y="124.53525" font-family="'CMU Serif'" font-size="4.2333px" stroke-width=".50121" text-align="center" text-anchor="middle" style="line-height:1.25" xml:space="preserve"><tspan x="76.312042" y="124.53525" font-size="4.2333px" stroke-width=".50121">bin</tspan></text>
  <g transform="matrix(1.8943 0 0 1.8943 33.727 96.337)" fill="#6c5353" fill-opacity=".42915" fill-rule="evenodd" stroke="#000">
   <rect x="29.104" y="11.906" width="7.9375" height="5.2917" stroke-width=".26458"/>
   <rect x="29.082" y="11.026" width="2.69" height=".90274" ry="2.1693e-7" stroke-width=".22038"/>
  </g>
  <text x="96.383247" y="124.01538" font-family="'CMU Serif'" font-size="4.2333px" stroke-width=".50121" text-align="center" text-anchor="middle" style="line-height:1.25" xml:space="preserve"><tspan x="96.383247" y="124.01538" font-size="4.2333px" stroke-width=".50121">users</tspan></text>
  <g transform="matrix(1.8943 0 0 1.8943 53.775 96.337)" fill="#6c5353" fill-opacity=".42915" fill-rule="evenodd" stroke="#000">
   <rect x="29.104" y="11.906" width="7.9375" height="5.2917" stroke-width=".26458"/>
   <rect x="29.082" y="11.026" width="2.69" height=".90274" ry="2.1693e-7" stroke-width=".22038"/>
  </g>
  <text x="116.39555" y="124.53525" font-family="'CMU Serif'" font-size="4.2333px" stroke-width=".50121" text-align="center" text-anchor="middle" style="line-height:1.25" xml:space="preserve"><tspan x="116.39555" y="124.53525" font-size="4.2333px" stroke-width=".50121">dev</tspan></text>
  <g transform="matrix(1.8943 0 0 1.8943 73.824 96.337)" fill="#6c5353" fill-opacity=".42915" fill-rule="evenodd" stroke="#000">
   <rect x="29.104" y="11.906" width="7.9375" height="5.2917" stroke-width=".26458"/>
   <rect x="29.082" y="11.026" width="2.69" height=".90274" ry="2.1693e-7" stroke-width=".22038"/>
  </g>
  <text x="136.49156" y="124.01538" font-family="'CMU Serif'" font-size="4.2333px" stroke-width=".50121" text-align="center" text-anchor="middle" style="line-height:1.25" xml:space="preserve"><tspan x="136.49156" y="124.01538" font-size="4.2333px" stroke-width=".50121">var</tspan></text>
  <g transform="matrix(1.8943 0 0 1.8943 93.872 96.337)" fill="#6c5353" fill-opacity=".42915" fill-rule="evenodd" stroke="#000">
   <rect x="29.104" y="11.906" width="7.9375" height="5.2917" stroke-width=".26458"/>
   <rect x="29.082" y="11.026" width="2.69" height=".90274" ry="2.1693e-7" stroke-width=".22038"/>
  </g>
  <text x="156.58447" y="124.36885" font-family="'CMU Serif'" font-size="4.2333px" stroke-width=".50121" text-align="center" text-anchor="middle" style="line-height:1.25" xml:space="preserve"><tspan x="156.58447" y="124.36885" font-size="4.2333px" stroke-width=".50121">root</tspan></text>
  <g transform="matrix(1.8943 0 0 1.8943 33.685 78.753)" fill="#ff0" fill-opacity=".42915" fill-rule="evenodd" stroke="#000">
   <rect x="29.104" y="11.906" width="7.9375" height="5.2917" stroke-width=".26458"/>
   <rect x="29.082" y="11.026" width="2.69" height=".90274" ry="2.1693e-7" stroke-width=".22038"/>
  </g>
  <text x="96.330017" y="106.19985" font-family="'CMU Serif'" font-size="3.175px" stroke-width=".50121" text-align="center" text-anchor="middle" style="line-height:1.25" xml:space="preserve"><tspan x="96.330017" y="106.19985" font-size="3.175px" stroke-width=".50121">username</tspan></text>
  <g transform="matrix(1.8943 0 0 1.8943 33.502 62.671)" fill="#318000" fill-opacity=".41296" fill-rule="evenodd" stroke="#000">
   <rect x="29.104" y="11.906" width="7.9375" height="5.2917" stroke-width=".26458"/>
   <rect x="29.082" y="11.026" width="2.69" height=".90274" ry="2.1693e-7" stroke-width=".22038"/>
  </g>
  <text x="96.145325" y="90.869568" font-family="'CMU Serif'" font-size="4.2333px" stroke-width=".50121" text-align="center" text-anchor="middle" style="line-height:1.25" xml:space="preserve"><tspan x="96.145325" y="90.869568" font-size="4.2333px" stroke-width=".50121">home</tspan></text>
  <g fill="none" stroke="#000" stroke-width=".26458px">
   <path d="m116.42 136.26v-7.4083"/>
   <path d="m124.09 124.35h4.7625"/>
   <path d="m109.01 124.35h-5.0271"/>
   <path d="m88.9 124.35h-5.0271"/>
   <path d="m143.93 124.35h5.0271"/>
   <path d="m96.573 118.8v-7.4083"/>
   <path d="m96.573 101.34v-6.0854"/>
  </g>
 </g>
</svg>
